<?xml version="1.0" standalone="no"?>
<!DOCTYPE svg PUBLIC "-//W3C//DTD SVG 20010904//EN"
 "http://www.w3.org/TR/2001/REC-SVG-20010904/DTD/svg10.dtd">
<svg version="1.0" xmlns="http://www.w3.org/2000/svg"
 width="1080.000000pt" height="1080.000000pt" viewBox="0 0 1080.000000 1080.000000"
 preserveAspectRatio="xMidYMid meet">

<g transform="translate(0.000000,1080.000000) scale(0.100000,-0.100000)"
fill="#000000" stroke="none">
<path d="M5316 9794 l7 -37 -37 7 -36 7 0 -91 c0 -49 4 -90 9 -90 5 0 22 5 36
10 l27 10 -7 -42 c-4 -23 -16 -55 -26 -72 -24 -40 -24 -93 1 -133 20 -33 20
-33 0 -33 -16 0 -20 -7 -20 -34 0 -26 -5 -36 -20 -41 -28 -9 -40 2 -40 36 0
28 -2 29 -47 29 -27 0 -82 -8 -124 -18 -222 -53 -294 -197 -216 -427 32 -92
62 -150 138 -265 34 -52 62 -104 61 -115 -2 -26 16 -45 35 -38 11 4 14 15 10
39 -3 19 -2 34 4 34 5 0 9 -8 9 -19 0 -10 7 -24 15 -31 14 -11 10 -16 -30 -33
-26 -12 -45 -26 -45 -36 -1 -31 -232 -208 -374 -286 -94 -51 -207 -100 -253
-110 -32 -6 -33 -5 -33 25 0 19 12 49 31 76 16 24 45 75 62 112 28 58 32 78
32 147 0 64 -4 85 -20 107 -28 39 -109 77 -182 84 -59 6 -61 6 -65 -17 -1 -13
-11 -25 -20 -27 -14 -3 -18 3 -18 27 0 17 -4 31 -9 31 -5 0 -4 13 2 30 9 24 8
39 -6 77 -22 61 -22 63 6 63 20 0 22 5 22 53 0 48 -2 52 -23 51 -20 -1 -23 3
-19 23 4 22 2 23 -56 23 -58 0 -59 -1 -55 -25 5 -22 2 -24 -18 -19 -23 6 -24
4 -24 -54 0 -57 1 -59 24 -55 22 5 24 2 19 -18 -4 -13 -12 -35 -20 -49 -16
-30 -17 -55 -3 -81 7 -12 7 -19 1 -19 -5 0 -11 -12 -13 -27 -4 -35 -32 -37
-36 -4 -4 23 -6 23 -60 17 -68 -8 -159 -51 -186 -88 -49 -68 -25 -200 59 -337
31 -50 45 -84 45 -108 l0 -36 -44 5 c-24 3 -78 22 -121 43 -103 49 -169 115
-191 191 -20 71 -10 117 61 274 29 63 58 132 65 154 15 47 9 148 -11 172 -8 9
-47 32 -88 51 -40 18 -99 53 -130 78 -129 101 -196 87 -336 -70 -131 -146
-122 -140 -234 -176 -56 -18 -123 -45 -146 -60 -125 -79 -138 -243 -27 -327
56 -43 80 -71 87 -103 12 -54 -38 -77 -95 -44 -56 32 -130 2 -157 -63 -13 -31
-14 -45 -4 -82 14 -51 44 -99 84 -130 l28 -22 -7 49 c-11 84 19 113 74 74 59
-40 118 -32 207 29 38 26 45 28 45 13 0 -10 -21 -52 -45 -93 -35 -58 -45 -84
-45 -118 0 -55 32 -114 79 -146 37 -25 148 -62 158 -52 3 3 -8 22 -24 43 -42
53 -63 97 -63 131 0 39 43 117 95 173 78 83 74 136 -21 304 -61 107 -66 120
-65 175 0 62 22 120 59 153 27 24 249 109 276 105 19 -3 21 -8 18 -61 -1 -33
-19 -110 -41 -180 -22 -67 -42 -140 -46 -163 -9 -61 12 -127 57 -179 67 -77
257 -156 429 -179 35 -5 48 -12 52 -26 4 -14 0 -20 -13 -20 -25 0 -70 -38 -70
-59 0 -15 -12 -19 -67 -25 -77 -8 -145 -35 -186 -74 -74 -70 -107 -207 -72
-299 17 -43 78 -123 95 -123 4 0 23 15 42 33 19 18 53 38 75 45 57 17 181 15
266 -4 101 -23 114 -33 42 -34 -79 0 -153 -20 -283 -76 -181 -78 -262 -71
-373 33 l-52 48 6 -52 c11 -95 71 -178 156 -216 90 -40 230 -15 318 55 38 30
92 58 114 58 6 0 -3 -16 -20 -35 -32 -37 -34 -45 -31 -105 3 -45 22 -83 54
-104 26 -16 26 -16 26 11 0 54 20 101 57 134 57 49 133 80 217 86 67 5 77 3
119 -21 52 -31 154 -47 166 -27 10 16 91 -56 153 -138 53 -70 115 -189 123
-237 5 -28 2 -30 -103 -81 -237 -115 -494 -325 -653 -532 -29 -39 -54 -69 -55
-68 -1 1 2 25 6 54 11 66 -2 161 -31 221 -16 34 -96 120 -294 317 -175 174
-286 293 -313 334 l-41 64 -20 -34 c-12 -19 -21 -42 -21 -51 0 -10 -4 -18 -9
-18 -15 0 -204 213 -249 280 -42 62 -82 156 -82 190 0 26 -12 25 -48 -5 l-29
-24 -20 22 c-35 39 -138 178 -215 292 -93 137 -215 343 -350 590 -116 211
-130 227 -191 201 -121 -50 -174 -373 -98 -593 20 -57 68 -143 179 -316 84
-131 152 -241 152 -244 0 -4 -114 107 -254 245 -139 139 -258 252 -263 252
-35 0 -83 -114 -90 -216 -11 -136 32 -260 138 -406 28 -38 49 -71 47 -73 -2
-2 -28 3 -58 12 -30 8 -94 17 -142 20 -129 8 -137 -5 -94 -142 34 -107 96
-205 195 -309 77 -80 83 -88 56 -83 -48 11 -299 21 -328 13 -36 -9 -67 -44
-67 -75 1 -73 114 -209 232 -279 47 -28 194 -96 296 -138 15 -6 -27 -8 -123
-6 -169 4 -299 -10 -335 -37 -115 -85 143 -307 425 -365 l60 -12 -75 -7 c-106
-11 -184 -33 -272 -78 -99 -52 -112 -78 -74 -143 63 -107 177 -156 381 -164
l130 -5 -146 -42 c-80 -23 -155 -47 -167 -54 -28 -15 -73 -81 -110 -162 l-30
-66 71 -54 c108 -82 129 -91 201 -87 33 2 69 8 80 13 17 7 17 6 6 -15 -13 -24
-9 -206 4 -240 8 -19 93 -40 162 -40 27 0 80 8 117 19 l67 18 -25 -33 c-45
-59 -55 -96 -55 -209 0 -76 4 -107 13 -109 6 -2 55 -12 107 -21 117 -22 156
-13 225 47 37 33 301 340 463 539 15 18 33 29 49 29 29 0 53 33 -231 -315
-221 -271 -226 -286 -151 -445 34 -71 50 -94 63 -93 85 12 161 27 182 38 44
23 77 67 145 195 142 266 240 430 257 430 16 0 15 -5 -6 -54 -13 -30 -62 -123
-109 -208 -138 -251 -149 -275 -142 -317 9 -52 32 -90 96 -159 53 -56 57 -59
80 -46 13 7 47 21 74 30 122 41 162 81 185 184 7 30 15 59 18 64 2 4 44 -68
92 -160 47 -93 110 -207 138 -254 l52 -85 -51 -44 c-27 -24 -62 -67 -77 -95
-22 -44 -26 -64 -27 -141 0 -49 6 -124 14 -165 11 -66 11 -80 -2 -112 -20 -47
-56 -70 -118 -76 -27 -2 -49 -7 -49 -11 0 -3 9 -21 20 -39 25 -40 70 -68 131
-81 56 -12 97 -3 163 40 l49 30 -7 -63 c-3 -35 -15 -91 -25 -126 l-19 -63 21
7 c66 20 148 75 160 107 9 24 27 12 27 -19 0 -40 33 -23 68 35 l20 33 5 -29
c3 -15 9 -53 13 -83 11 -94 13 -96 61 -55 23 19 55 58 71 86 l29 51 32 -50
c50 -79 56 -81 80 -28 11 25 24 46 30 46 6 0 26 -14 45 -30 45 -40 96 -60 148
-60 86 1 170 63 184 135 8 47 1 55 -43 44 -74 -17 -169 18 -203 74 -17 28 -27
77 -16 77 2 0 64 -29 137 -65 127 -62 298 -125 382 -140 68 -13 42 -48 -108
-147 -94 -62 -125 -103 -124 -162 1 -73 10 -80 44 -31 42 63 93 89 155 80 28
-4 50 -11 50 -15 0 -14 -125 -85 -271 -153 -201 -95 -225 -108 -341 -195 -99
-74 -174 -112 -220 -112 -34 0 -76 29 -86 59 -13 37 -1 87 30 126 l22 28 -40
-7 c-52 -10 -123 -42 -153 -69 -34 -32 -71 -115 -71 -163 0 -61 26 -135 60
-172 34 -37 36 -42 16 -42 -20 0 -95 -85 -113 -128 -20 -47 -20 -146 -1 -192
8 -20 38 -62 66 -94 52 -59 69 -99 57 -136 -8 -24 -3 -25 33 -6 43 22 61 49
71 102 14 71 27 100 53 118 12 9 25 16 28 16 3 0 6 -30 7 -67 0 -79 19 -128
70 -191 53 -65 105 -85 212 -80 83 3 88 4 148 47 35 25 64 43 65 40 2 -2 16
-30 32 -62 33 -67 86 -114 172 -154 50 -24 72 -28 149 -28 81 0 97 3 152 31
l62 30 46 -72 c48 -76 88 -116 141 -142 28 -13 37 -13 65 -2 45 19 119 96 153
161 16 30 30 56 32 58 2 2 15 -6 31 -16 142 -99 381 -49 489 103 19 26 34 52
34 58 0 6 4 18 9 25 8 12 21 7 72 -29 59 -42 67 -44 146 -48 105 -6 158 13
208 71 57 66 75 114 75 195 0 40 3 72 6 72 3 0 14 -5 25 -10 25 -14 44 -53 58
-121 12 -56 32 -84 78 -108 30 -15 31 -14 25 14 -7 41 6 72 54 127 62 69 84
119 84 193 0 78 -32 148 -93 201 l-45 40 23 22 c63 61 81 196 37 280 -27 51
-88 97 -155 117 -76 23 -81 20 -52 -22 61 -90 12 -184 -89 -169 -52 8 -98 34
-211 121 -67 51 -143 94 -295 167 -202 98 -300 153 -300 168 0 16 88 21 122 7
31 -13 79 -60 104 -103 11 -17 12 -15 19 19 10 49 -1 99 -27 132 -12 15 -65
56 -119 91 -103 66 -147 114 -105 114 14 0 234 62 270 76 14 5 17 4 12 -5 -13
-21 3 -79 31 -112 35 -41 96 -69 155 -69 35 0 65 10 126 41 l80 42 47 -37 48
-36 18 40 c10 22 22 40 26 40 5 0 17 -16 27 -35 11 -20 40 -55 65 -78 l46 -42
8 95 c11 123 15 134 32 85 12 -34 66 -94 87 -95 3 0 4 28 1 62 l-5 63 33 -49
c18 -27 53 -61 77 -77 43 -27 99 -46 108 -36 3 3 -7 25 -22 49 -33 51 -54 118
-54 167 0 58 12 66 46 30 43 -45 82 -62 144 -62 66 0 123 26 168 78 33 37 66
94 59 101 -2 2 -20 -3 -40 -11 -49 -20 -100 -19 -128 4 -26 21 -25 0 -17 291
3 112 2 116 -30 182 -19 40 -50 82 -76 105 l-43 38 44 75 c24 41 84 154 132
252 l89 176 23 -85 c33 -123 47 -140 158 -185 51 -20 99 -42 106 -48 9 -8 17
-3 30 17 10 16 37 51 60 78 103 124 103 124 -32 384 -58 113 -117 225 -130
249 -26 47 -31 74 -11 54 7 -7 83 -137 169 -290 115 -205 164 -283 187 -299
19 -12 64 -26 105 -33 39 -6 84 -15 99 -20 25 -8 28 -5 73 88 50 102 63 160
47 202 -5 14 -76 108 -157 210 -224 283 -238 301 -230 308 4 4 16 -5 28 -19
264 -316 446 -521 474 -534 56 -27 98 -29 208 -10 l105 18 0 111 0 111 -45 57
-44 57 52 -25 c64 -30 192 -34 257 -8 l40 16 0 86 c0 73 -4 91 -25 128 -14 23
-41 56 -61 72 l-36 30 56 -13 c59 -14 200 -4 241 17 28 15 155 109 155 115 0
3 -8 17 -19 31 -10 15 -31 52 -46 82 -25 51 -80 120 -96 120 -3 0 -28 10 -55
22 l-49 22 80 11 c136 20 232 83 282 183 35 71 21 93 -91 146 -102 49 -150 63
-255 72 l-72 7 91 23 c273 69 499 275 390 355 -36 27 -166 41 -334 37 -79 -1
-144 -2 -143 -2 1 1 43 18 92 39 198 81 318 159 394 256 73 91 77 172 10 200
-31 12 -279 7 -344 -7 -27 -6 -21 2 57 85 100 104 156 193 192 303 29 85 32
118 14 136 -23 23 -170 11 -298 -25 -24 -6 -24 -6 6 33 65 81 133 197 150 252
25 82 25 241 0 307 -22 59 -53 105 -69 105 -6 0 -125 -114 -265 -252 -140
-139 -249 -242 -242 -228 7 14 32 54 55 90 138 214 245 392 262 440 80 215 27
556 -93 606 -63 26 -76 13 -207 -226 -219 -399 -375 -646 -530 -833 l-39 -47
-30 25 c-34 29 -48 32 -48 10 0 -34 -43 -133 -83 -195 -46 -68 -232 -280 -246
-280 -5 0 -12 12 -16 28 -3 15 -13 37 -21 50 -15 23 -16 23 -66 -50 -31 -45
-148 -169 -308 -328 -149 -147 -269 -274 -283 -300 -31 -55 -50 -155 -42 -218
l6 -47 -37 45 c-194 230 -420 412 -666 536 -60 30 -108 58 -108 63 0 22 63
159 96 210 52 79 173 196 187 182 24 -24 136 -3 176 33 41 37 217 6 299 -54
54 -39 71 -67 79 -128 l6 -51 24 16 c30 20 44 46 54 98 9 49 -8 93 -46 123
-20 16 -23 22 -11 22 22 0 95 -37 121 -61 11 -10 46 -30 78 -44 114 -52 240
-33 320 50 39 41 77 127 77 177 l0 31 -50 -47 c-110 -103 -193 -110 -371 -33
-128 56 -204 77 -284 77 -46 1 -56 3 -42 11 30 18 156 40 231 41 96 1 152 -16
195 -59 41 -41 49 -39 98 26 56 73 68 161 33 254 -42 111 -122 170 -253 183
-55 6 -67 10 -67 25 0 22 -46 59 -72 59 -14 0 -18 5 -14 16 3 9 6 17 6 19 0 2
21 7 48 10 92 13 208 47 287 84 202 94 234 186 154 438 -23 75 -41 151 -42
183 -2 49 0 55 19 58 27 4 249 -81 276 -105 37 -34 58 -89 58 -154 0 -58 -4
-69 -67 -178 -65 -111 -68 -119 -68 -182 0 -65 1 -67 47 -116 25 -28 58 -74
73 -103 35 -68 29 -105 -26 -183 -22 -32 -38 -61 -36 -64 9 -8 117 27 152 50
19 12 46 40 60 62 39 59 32 122 -23 210 -23 36 -42 75 -42 86 0 17 5 16 53
-15 28 -19 71 -40 94 -47 38 -11 45 -10 87 15 76 44 91 35 89 -59 l-2 -60 48
52 c78 83 88 183 24 233 -39 31 -71 35 -122 16 -61 -22 -88 -21 -96 4 -12 38
14 87 69 128 63 48 91 99 91 167 0 111 -65 173 -240 231 -106 35 -112 39 -165
98 -30 33 -85 91 -121 128 -106 106 -170 113 -280 30 -34 -26 -98 -65 -143
-87 -98 -48 -108 -64 -103 -160 3 -60 13 -89 65 -205 92 -203 97 -263 29 -357
-52 -73 -210 -163 -287 -163 -28 0 -30 3 -30 35 0 20 10 49 26 72 14 21 42 72
62 113 32 66 36 84 37 152 0 70 -2 79 -30 113 -34 43 -99 72 -179 81 -52 6
-54 5 -58 -17 -1 -13 -11 -25 -20 -27 -14 -3 -18 3 -18 27 0 17 -5 31 -10 31
-7 0 -7 6 0 19 14 28 12 64 -5 87 -8 10 -15 30 -15 43 0 18 4 22 20 18 18 -5
20 0 20 55 0 55 -2 60 -20 55 -16 -4 -20 0 -20 19 0 23 -3 24 -59 24 -56 0
-58 -1 -54 -24 4 -21 2 -23 -21 -19 -25 5 -26 4 -26 -51 0 -53 1 -56 25 -56
30 0 30 -2 8 -63 -14 -38 -15 -53 -6 -77 6 -17 7 -30 2 -30 -5 0 -9 -14 -9
-31 0 -24 -4 -30 -17 -27 -10 2 -19 13 -21 26 -3 18 -10 22 -41 22 -61 0 -139
-29 -180 -66 -47 -42 -62 -91 -50 -165 9 -57 66 -185 105 -236 28 -37 33 -93
8 -93 -49 0 -265 105 -390 188 -109 74 -259 198 -259 215 0 6 -19 22 -43 33
-32 16 -39 23 -27 28 9 3 24 -1 32 -10 20 -19 34 -7 39 34 2 16 31 71 64 121
175 262 212 478 102 594 -57 61 -182 107 -289 107 -59 0 -63 -2 -63 -22 0 -36
-14 -50 -41 -43 -22 5 -24 11 -21 41 4 29 1 34 -17 34 l-21 0 21 40 c23 45 21
99 -4 129 -8 9 -17 30 -21 46 -4 17 -9 38 -12 47 -4 15 -1 16 28 7 18 -5 36
-9 40 -9 5 0 8 41 8 91 l0 91 -40 -7 -40 -7 10 27 c5 14 10 31 10 36 0 5 -41
9 -90 9 l-91 0 7 -36z m124 -13 c0 -4 -5 -22 -11 -40 -6 -18 -9 -34 -7 -37 3
-2 24 2 46 10 l42 15 0 -49 0 -49 -42 15 c-22 8 -43 13 -44 11 -2 -2 1 -19 6
-38 14 -49 14 -49 -35 -49 l-44 0 14 46 c12 42 12 45 -3 39 -9 -4 -32 -9 -50
-12 l-32 -6 6 39 c3 22 7 40 9 42 2 2 20 -1 41 -7 21 -6 39 -9 41 -7 2 1 -3
22 -11 44 l-15 42 44 0 c25 0 45 -4 45 -9z m10 -278 c35 -24 40 -33 40 -76 0
-99 -146 -123 -181 -30 -30 80 70 155 141 106z m6 -225 c18 -28 -68 -52 -105
-29 -20 13 -7 39 21 43 32 5 77 -3 84 -14z m194 0 c0 -7 -5 -40 -10 -73 -9
-59 -50 -373 -50 -387 0 -5 -7 -8 -15 -8 -19 0 -19 2 0 131 9 57 17 118 19
134 3 17 10 72 17 123 8 65 16 92 25 92 8 0 14 -6 14 -12z m-538 -10 c7 -20
-36 -58 -60 -51 -12 3 -22 12 -22 19 0 8 -5 14 -12 14 -6 0 -8 3 -5 7 6 5 39
13 89 22 3 0 8 -4 10 -11z m68 1 c0 -10 41 -330 54 -426 3 -22 1 -33 -8 -33
-9 0 -20 63 -40 213 -15 116 -29 222 -32 235 -3 15 0 22 11 22 8 0 15 -5 15
-11z m565 -12 c14 -22 13 -28 -6 -71 -20 -46 -21 -47 -40 -30 -19 17 -24 58
-13 102 8 29 39 29 59 -1z m135 -38 c0 -4 -5 -20 -10 -35 l-10 -26 -30 43
c-16 24 -30 47 -30 51 0 3 18 -1 40 -9 22 -9 40 -20 40 -24z m-928 -4 c-2 -14
-8 -25 -12 -25 -5 0 -12 -9 -15 -21 -5 -15 -10 -18 -18 -10 -6 6 -17 11 -24
11 -18 0 -16 -29 2 -37 11 -4 15 -16 13 -36 -3 -35 20 -50 29 -18 4 16 11 19
29 15 17 -4 24 -2 24 9 0 8 -7 18 -16 21 -28 11 16 98 45 88 26 -9 52 -43 49
-65 -2 -14 3 -23 15 -25 10 -2 17 3 17 12 0 9 3 16 8 16 20 -1 35 -22 42 -56
8 -49 -6 -83 -30 -77 -25 7 -37 -17 -16 -29 12 -7 16 -17 12 -33 -7 -29 13
-44 29 -22 7 10 15 17 18 17 5 0 27 -114 27 -143 0 -15 -2 -15 -29 1 -16 9
-27 21 -24 28 2 6 -2 14 -10 17 -10 3 -13 14 -10 31 4 19 1 26 -10 26 -8 0
-17 -6 -19 -12 -7 -21 -42 -14 -55 11 -7 12 -10 33 -7 46 8 33 -14 41 -28 11
-8 -20 -14 -23 -24 -15 -24 20 -37 -1 -16 -25 21 -22 19 -33 -11 -77 -16 -24
-21 -25 -42 -15 -14 6 -30 24 -36 40 -10 23 -9 33 4 55 9 15 25 26 38 26 30 0
35 21 9 35 -17 9 -18 14 -9 31 7 14 8 24 1 31 -13 13 -32 2 -32 -18 0 -8 -2
-14 -4 -14 -65 0 -37 125 42 186 25 18 46 34 47 34 1 0 0 -11 -3 -25z m371 12
c3 -8 1 -20 -4 -28 -6 -10 -9 -7 -9 14 0 29 5 35 13 14z m163 -14 c-10 -10
-19 5 -10 18 6 11 8 11 12 0 2 -7 1 -15 -2 -18z m-206 -3 c0 -5 -11 -10 -25
-10 -14 0 -25 5 -25 10 0 6 11 10 25 10 14 0 25 -4 25 -10z m300 0 c0 -5 -11
-10 -25 -10 -14 0 -25 5 -25 10 0 6 11 10 25 10 14 0 25 -4 25 -10z m-450 -26
c0 -8 -4 -12 -10 -9 -5 3 -10 10 -10 16 0 5 5 9 10 9 6 0 10 -7 10 -16z m310
1 c18 -22 3 -35 -41 -35 -27 0 -42 5 -46 16 -12 32 63 48 87 19z m376 -25 l27
-40 -28 -41 -27 -41 -24 36 -24 35 22 45 c13 25 24 46 25 46 2 0 15 -18 29
-40z m124 -5 c19 -31 21 -39 10 -66 -18 -43 -26 -43 -50 -2 -21 35 -21 39 -6
70 9 18 18 33 20 33 2 0 14 -16 26 -35z m-660 -6 c0 -12 -37 -12 -45 0 -3 5 3
11 12 13 21 5 33 0 33 -13z m290 0 c0 -5 -11 -9 -25 -9 -24 0 -32 10 -19 22 8
8 44 -3 44 -13z m-235 -18 c3 -5 1 -12 -4 -15 -5 -3 -11 1 -15 9 -6 16 9 21
19 6z m140 -116 c-4 -64 -9 -114 -12 -111 -14 13 -23 89 -12 102 6 8 9 21 5
29 -3 8 0 26 6 40 8 18 8 28 -1 39 -9 11 -9 15 1 19 7 2 15 3 17 1 2 -2 0 -55
-4 -119z m209 63 c-20 -38 -28 -30 -20 17 6 30 10 34 21 25 12 -10 12 -16 -1
-42z m-264 22 c13 -9 13 -11 0 -20 -20 -13 -47 -13 -56 1 -7 11 12 29 31 29 6
0 17 -5 25 -10z m-145 -10 c-27 -12 -35 -12 -35 0 0 6 12 10 28 9 24 0 25 -1
7 -9z m285 0 c0 -13 -11 -13 -30 0 -12 8 -11 10 8 10 12 0 22 -4 22 -10z
m-223 -52 c4 -38 6 -118 3 -133 -5 -23 -18 55 -19 114 -1 66 9 78 16 19z m538
-64 c-14 -19 -28 -34 -30 -34 -3 0 -12 14 -20 31 -16 30 -15 32 11 72 l27 41
19 -38 19 -37 -26 -35z m-125 57 c11 -26 9 -34 -10 -61 -26 -36 -33 -37 -54
-5 -16 24 -15 27 9 65 28 45 36 45 55 1z m-460 4 c0 -8 -9 -15 -20 -15 -11 0
-20 7 -20 15 0 8 9 15 20 15 11 0 20 -7 20 -15z m260 0 c0 -8 -9 -15 -20 -15
-11 0 -20 7 -20 15 0 8 9 15 20 15 11 0 20 -7 20 -15z m415 -64 l-7 -26 -10
25 c-6 17 -5 33 3 50 l13 25 4 -24 c2 -12 1 -35 -3 -50z m-552 52 c-7 -2 -21
-2 -30 0 -10 3 -4 5 12 5 17 0 24 -2 18 -5z m-2163 -43 c0 -5 -3 -10 -7 -10
-5 0 -23 -9 -42 -21 -47 -29 -22 -43 28 -16 26 14 45 18 64 13 33 -8 28 -21
-10 -29 -40 -9 -60 -24 -48 -36 7 -7 25 -3 54 9 24 11 49 20 57 20 80 0 -203
-121 -320 -136 -49 -7 -50 -6 -36 12 57 74 132 152 169 176 45 28 91 37 91 18z
m1600 -4 c0 -8 -4 -18 -10 -21 -5 -3 -10 3 -10 14 0 12 5 21 10 21 6 0 10 -6
10 -14z m2791 -14 c37 -24 109 -99 169 -176 14 -18 13 -19 -36 -12 -117 15
-400 136 -320 136 8 0 35 -9 60 -20 25 -10 48 -15 51 -11 6 11 -12 26 -55 44
l-35 14 30 8 c22 6 39 3 66 -12 50 -27 75 -13 28 16 -19 12 -37 21 -41 21 -5
0 -8 5 -8 10 0 19 46 10 91 -18z m-2343 1 c2 -8 -5 -13 -17 -13 -12 0 -21 6
-21 16 0 18 31 15 38 -3z m242 2 c0 -8 -7 -15 -15 -15 -8 0 -15 7 -15 15 0 8
7 15 15 15 8 0 15 -7 15 -15z m-130 -4 c0 -14 -18 -23 -30 -16 -6 4 -8 11 -5
16 8 12 35 12 35 0z m380 -76 c-29 -31 -34 -31 -47 -2 -9 20 -7 29 15 57 l26
33 15 -31 c14 -30 13 -33 -9 -57z m120 -10 c-30 -32 -36 -31 -44 1 -6 21 -1
33 21 56 l28 29 9 -31 c8 -25 5 -34 -14 -55z m-240 55 c12 -22 3 -47 -26 -71
-16 -13 -17 -11 -11 26 4 22 7 46 7 53 0 19 18 14 30 -8z m-245 -31 c9 -17 17
-55 17 -85 l2 -55 24 30 c30 40 42 39 42 -2 0 -47 -61 -131 -83 -114 -2 1 -11
-4 -20 -12 -12 -9 -17 -10 -17 -2 0 7 -4 10 -9 7 -11 -7 -58 29 -72 56 -19 36
-27 75 -18 89 7 11 15 7 37 -20 l28 -33 -4 35 c-6 52 24 137 49 137 5 0 16
-14 24 -31z m-125 1 c0 -5 -7 -10 -15 -10 -8 0 -15 5 -15 10 0 6 7 10 15 10 8
0 15 -4 15 -10z m240 0 c0 -5 -7 -10 -15 -10 -8 0 -15 5 -15 10 0 6 7 10 15
10 8 0 15 -4 15 -10z m-506 -31 c21 -16 25 -26 20 -46 -5 -20 -4 -25 7 -21 9
4 25 -9 42 -33 l28 -39 -36 0 c-32 0 -35 2 -29 24 7 31 -12 43 -28 17 -9 -14
-19 -19 -35 -15 -17 5 -23 2 -23 -9 0 -9 6 -20 13 -24 18 -11 28 -51 13 -56
-16 -6 33 -57 56 -57 27 0 22 13 -12 28 -40 18 -29 32 18 25 46 -7 131 -50
111 -57 -8 -2 -45 -13 -82 -24 l-68 -20 -32 52 c-68 107 -76 122 -68 134 4 7
15 10 23 7 21 -8 35 15 17 26 -18 11 -19 78 -1 71 8 -2 16 4 19 17 7 26 14 26
47 0z m-917 -19 c-6 -28 -5 -29 23 -23 28 5 30 4 30 -26 0 -29 -1 -30 -26 -20
-33 12 -37 8 -25 -25 10 -25 9 -26 -20 -26 -29 0 -30 2 -24 30 7 33 7 34 -29
20 -24 -9 -26 -8 -26 21 0 29 2 30 31 24 30 -7 31 -6 24 24 -6 29 -5 31 20 31
25 0 27 -3 22 -30z m2608 -1 c-7 -30 -6 -31 24 -24 29 6 31 5 31 -24 0 -29 -2
-30 -26 -21 -36 14 -36 13 -29 -20 6 -28 5 -30 -24 -30 -29 0 -30 1 -20 26 12
33 8 37 -25 25 -25 -10 -26 -9 -26 20 0 29 2 30 30 24 29 -6 30 -6 24 24 -6
29 -4 31 21 31 25 0 26 -2 20 -31z m-1005 1 c9 -17 8 -21 -7 -26 -10 -2 -35
-13 -56 -24 -41 -20 -39 -12 7 38 36 38 42 39 56 12z m120 -6 c9 -21 6 -29
-12 -45 -29 -24 -35 -24 -43 2 -5 14 0 28 16 45 28 30 27 30 39 -2z m-2343 1
c62 -26 73 -42 73 -104 0 -46 -10 -77 -51 -171 -76 -171 -88 -209 -89 -275 0
-42 7 -75 24 -110 24 -53 100 -129 158 -159 l33 -17 -30 6 c-84 17 -111 30
-155 71 -64 60 -80 96 -80 181 0 55 7 84 36 153 99 235 108 266 95 310 -26 87
-102 97 -257 32 -106 -43 -221 -75 -409 -112 -160 -32 -206 -60 -221 -138 -9
-44 11 -86 55 -116 106 -74 144 -160 105 -242 -24 -51 -76 -64 -145 -35 -28
11 -62 21 -74 21 -21 0 -58 -32 -68 -60 -4 -10 -6 -8 -6 7 -1 12 10 34 22 49
28 32 67 36 117 11 43 -22 62 -21 94 4 21 16 26 29 26 62 0 51 -17 77 -93 148
-49 45 -59 61 -64 96 -7 56 1 86 39 128 50 58 150 99 316 130 130 23 198 43
312 90 149 61 176 65 237 40z m4027 -34 c141 -57 198 -74 321 -96 251 -45 365
-117 365 -232 0 -48 -26 -90 -85 -139 -56 -47 -75 -80 -75 -133 0 -31 6 -44
26 -60 31 -25 51 -26 90 -7 62 31 81 30 114 -2 17 -17 30 -41 29 -54 0 -23 0
-23 -9 -2 -10 26 -48 54 -71 54 -9 0 -40 -10 -68 -21 -69 -29 -121 -16 -145
35 -35 75 -8 150 82 222 83 68 100 111 67 174 -25 49 -67 70 -192 96 -238 49
-300 66 -413 112 -78 31 -130 46 -162 47 -62 0 -100 -28 -112 -83 -9 -44 -7
-51 98 -302 29 -68 36 -98 36 -152 0 -83 -9 -106 -62 -164 -45 -50 -97 -77
-163 -88 l-40 -7 50 30 c28 16 68 48 89 71 97 107 101 205 16 390 -69 150 -80
184 -80 237 0 59 13 81 63 104 63 28 99 24 231 -30z m-1614 -1 c0 -5 -5 -10
-11 -10 -5 0 -7 5 -4 10 3 6 8 10 11 10 2 0 4 -4 4 -10z m-727 -58 c21 -20 33
-38 27 -40 -16 -6 -87 44 -100 69 -11 19 -10 20 12 14 12 -4 40 -24 61 -43z
m496 12 c-26 -28 -70 -54 -90 -54 -19 0 42 61 76 75 39 17 44 11 14 -21z m81
0 c0 -12 -43 -34 -67 -34 -12 0 -8 10 17 35 32 33 49 33 50 -1z m-498 -17 c44
-33 78 -81 66 -92 -8 -8 -73 21 -87 39 -18 21 -42 86 -32 86 5 0 29 -15 53
-33z m327 6 c-14 -39 -29 -57 -69 -82 -51 -30 -64 -28 -45 9 23 44 81 91 122
100 1 0 -2 -12 -8 -27z m-2175 1 c9 -9 16 -32 16 -55 0 -24 4 -38 10 -34 6 3
10 25 10 48 1 40 1 41 16 22 10 -12 14 -32 11 -51 -5 -32 -45 -137 -90 -234
-53 -116 -62 -220 -26 -291 11 -23 18 -43 15 -46 -12 -12 -95 88 -106 128 -15
55 -8 97 39 239 43 129 56 205 41 244 -5 14 -6 26 -1 26 14 0 29 -23 37 -54 7
-29 7 -29 15 -7 9 24 8 49 -4 69 -11 17 -2 15 17 -4z m2456 0 c0 -15 -26 -43
-41 -44 -17 0 -18 34 -2 46 25 18 43 17 43 -2z m1533 4 c-12 -20 -13 -45 -4
-70 8 -22 9 -22 15 9 4 17 14 38 23 45 14 11 15 9 11 -22 -8 -50 8 -135 46
-253 61 -185 57 -238 -20 -316 -24 -24 -46 -42 -49 -39 -3 2 5 24 16 48 18 36
21 57 17 119 -4 62 -13 95 -51 181 -25 58 -56 135 -68 173 -19 59 -20 71 -9
95 l14 27 6 -47 c8 -63 20 -72 20 -15 0 28 6 52 16 61 19 19 28 21 17 4z
m-1618 -49 c4 -6 5 -12 3 -15 -6 -5 -98 -23 -98 -18 0 4 73 43 82 44 4 0 10
-5 13 -11z m-612 -14 c18 -9 50 -26 72 -40 l40 -25 -37 0 c-39 0 -123 28 -113
38 3 3 -2 14 -12 24 -15 17 -15 18 1 18 9 0 31 -7 49 -15z m504 -3 c-10 -10
-15 -21 -12 -24 3 -3 -12 -13 -35 -22 -43 -17 -121 -22 -104 -7 20 19 128 71
147 71 19 0 19 -1 4 -18z m-1553 -3 c54 -25 35 -109 -24 -109 -32 0 -70 30
-70 55 0 18 43 65 59 65 6 0 21 -5 35 -11z m2618 -6 c25 -22 24 -79 -1 -93
-34 -17 -69 -12 -86 14 -40 60 34 127 87 79z m-1001 -42 c-22 -12 -30 -21 -22
-25 6 -4 27 2 47 14 19 12 38 20 41 17 3 -3 -6 -23 -19 -44 l-23 -39 -79 25
-79 24 42 21 c22 12 60 22 84 23 l42 2 -34 -18z m-2787 -36 c-7 -16 -24 -21
-24 -6 0 8 7 13 27 20 1 1 0 -6 -3 -14z m4948 -51 c13 -31 17 -55 13 -77 -6
-25 -4 -29 5 -20 17 16 24 96 11 121 -9 18 -9 21 3 16 21 -8 39 -70 33 -110
-3 -20 -2 -32 3 -29 15 9 31 82 24 110 -9 34 2 31 22 -6 9 -19 14 -47 12 -70
-2 -22 -1 -39 3 -39 14 0 31 62 25 93 -5 30 -5 31 9 13 9 -11 15 -42 15 -70
l1 -51 19 24 c22 26 25 52 9 84 -10 21 -9 21 10 -2 34 -38 27 -77 -21 -119
-23 -20 -58 -53 -79 -74 -121 -120 -26 -328 125 -272 70 27 98 29 113 8 7 -10
13 -26 13 -37 0 -17 -1 -17 -16 -3 -27 27 -59 29 -105 5 -54 -27 -112 -28
-147 -2 -39 29 -72 82 -72 114 0 40 -14 36 -36 -8 -30 -61 -25 -129 15 -186
68 -99 74 -149 24 -208 -22 -26 -83 -67 -83 -56 0 3 9 26 21 51 15 34 19 58
14 85 -7 45 -52 125 -94 167 -66 67 -67 122 -5 229 88 152 94 168 94 236 0 42
-7 79 -20 107 l-19 42 20 -11 c12 -6 30 -31 41 -55z m-5034 12 c-10 -33 -4
-101 10 -110 4 -2 7 15 7 38 0 47 22 99 39 92 6 -2 9 -10 7 -17 -2 -8 -6 -46
-9 -85 -4 -78 -2 -85 92 -249 47 -81 57 -127 36 -165 -6 -11 -32 -48 -59 -84
-65 -85 -88 -154 -71 -210 7 -22 17 -47 22 -54 19 -23 2 -23 -33 1 -18 12 -44
38 -57 57 -31 46 -25 82 30 173 36 60 43 80 43 122 -1 31 -8 63 -20 83 -23 39
-35 41 -35 6 0 -50 -52 -116 -105 -134 -25 -8 -42 -7 -76 5 -110 41 -107 40
-134 15 l-25 -23 0 25 c0 51 36 58 126 24 81 -30 156 12 174 97 19 94 -28 188
-119 236 -24 13 -51 61 -51 90 0 11 11 33 25 48 l25 28 -15 -30 c-20 -40 -19
-58 5 -86 l19 -24 1 51 c0 38 6 58 21 75 19 23 20 23 10 2 -14 -28 -14 -56 1
-88 17 -38 23 -31 23 30 0 40 5 59 19 72 18 17 18 17 12 -10 -7 -29 8 -102 23
-112 5 -3 7 12 4 33 -3 23 1 53 10 75 20 47 39 50 25 3z m2452 9 c-7 -8 -16
-12 -21 -9 -13 8 -1 24 18 24 13 0 13 -3 3 -15z m98 -5 c-10 -16 -10 -24 0
-40 11 -18 10 -20 -11 -20 -21 0 -23 4 -19 31 3 20 0 34 -9 40 -10 6 -4 9 19
9 30 0 31 -2 20 -20z m87 11 c10 -17 -12 -21 -25 -6 -10 12 -10 15 3 15 9 0
18 -4 22 -9z m-268 -27 c-3 -35 25 -54 54 -36 14 9 25 10 31 4 7 -7 -2 -13
-28 -17 -22 -3 -52 -9 -69 -12 -24 -4 -28 -3 -17 8 18 19 15 49 -5 56 -15 6
-14 8 7 14 14 4 26 7 27 8 1 1 1 -11 0 -25z m352 0 c-6 -8 -9 -25 -7 -38 5
-23 3 -24 -31 -19 -73 9 -85 13 -72 26 8 8 14 8 23 -1 21 -21 57 -14 64 12 3
14 3 29 0 34 -3 6 3 8 14 5 16 -4 18 -8 9 -19z m-435 -9 c-4 -8 -11 -12 -16
-9 -6 4 -5 10 3 15 19 12 19 11 13 -6z m500 9 c16 -6 12 -24 -5 -24 -6 0 -8 4
-5 9 4 5 0 12 -6 14 -7 3 -10 6 -6 6 3 1 13 -2 22 -5z m-1529 -15 c8 -12 6
-15 -20 -23 -24 -7 -50 7 -41 23 9 14 53 14 61 0z m2611 0 c9 -16 -17 -30 -41
-23 -26 8 -28 11 -20 23 8 14 52 14 61 0z m-2826 -10 c0 -6 -6 -9 -14 -6 -10
4 -12 0 -8 -15 5 -22 -3 -20 -37 6 -11 9 -9 12 10 17 37 11 49 10 49 -2z m60
-138 c23 -152 24 -169 11 -155 -9 8 -42 247 -40 289 1 35 8 3 29 -134z m284
107 c-32 -264 -35 -280 -48 -267 -8 7 37 309 45 309 5 0 6 -19 3 -42z m66 27
c18 -22 -6 -81 -26 -64 -17 14 -15 79 2 79 6 0 17 -7 24 -15z m2194 -1 c10
-26 7 -51 -7 -63 -11 -8 -17 -5 -26 15 -13 30 -6 64 14 64 7 0 16 -7 19 -16z
m46 8 c0 -8 23 -183 35 -267 4 -29 3 -37 -5 -29 -12 12 -13 20 -30 149 -6 50
-13 105 -16 123 -3 19 -1 32 6 32 5 0 10 -4 10 -8z m285 -144 c-9 -79 -21
-147 -26 -152 -13 -14 -11 12 11 159 11 72 20 134 20 139 0 5 3 7 6 3 4 -3 -1
-70 -11 -149z m93 143 c10 -6 10 -10 -3 -21 -12 -10 -18 -10 -30 0 -8 7 -15
16 -15 21 0 11 31 11 48 0z m-1198 -11 c0 -5 -2 -10 -4 -10 -3 0 -8 5 -11 10
-3 6 -1 10 4 10 6 0 11 -4 11 -10z m-1346 -6 c17 -7 21 -29 7 -38 -5 -3 -16 5
-25 19 -16 25 -11 30 18 19z m1267 -30 c7 -8 2 -10 -15 -7 -22 5 -23 8 -13 24
8 13 13 15 16 7 2 -7 8 -18 12 -24z m763 11 c-16 -25 -34 -25 -34 0 0 13 14
23 38 24 9 1 8 -6 -4 -24z m-4390 -115 c249 -454 401 -694 578 -914 l64 -79
-18 -36 c-10 -19 -18 -52 -18 -73 0 -21 -5 -38 -11 -38 -32 0 -344 381 -484
593 -32 48 -60 85 -62 83 -3 -2 14 -41 36 -85 110 -218 301 -488 458 -647 61
-63 66 -71 84 -146 20 -84 48 -147 79 -178 25 -25 20 -25 -54 0 -35 12 -86 20
-126 20 -58 0 -72 4 -106 28 -112 81 -482 333 -524 357 -70 40 150 -143 378
-315 157 -119 167 -128 173 -165 4 -22 5 -42 3 -44 -2 -2 -40 21 -86 51 -46
30 -186 120 -313 200 -251 159 -314 212 -405 333 -87 116 -103 164 -104 305
-1 99 2 122 22 164 l22 50 37 -35 c19 -19 142 -138 272 -265 290 -284 431
-406 666 -578 l80 -58 -95 93 c-53 52 -159 155 -236 229 l-141 135 -163 258
c-173 275 -202 331 -221 442 -27 157 21 394 88 434 40 24 56 9 127 -119z
m1756 95 c-6 -7 -19 -11 -27 -8 -14 5 -12 9 8 26 25 20 40 7 19 -18z m1380 20
c10 -13 9 -15 -8 -15 -15 0 -20 5 -16 15 4 8 7 15 9 15 1 0 8 -7 15 -15z
m1859 -1 c17 -13 20 -19 10 -25 -16 -9 -26 -4 -39 22 -13 23 -2 24 29 3z
m1882 -15 c63 -68 97 -291 65 -438 -21 -98 -54 -162 -231 -441 -162 -256 -163
-257 -480 -558 l-140 -133 125 92 c245 181 292 222 659 582 295 288 275 277
306 173 36 -121 9 -277 -68 -394 -93 -142 -161 -197 -511 -420 -175 -112 -319
-202 -321 -200 -1 2 0 20 3 41 4 36 13 45 164 159 210 158 457 364 386 322
-36 -21 -214 -142 -380 -257 l-187 -130 -63 2 c-40 1 -87 -6 -128 -19 -80 -25
-79 -25 -51 2 32 29 67 109 84 188 12 58 20 72 68 120 83 84 187 213 276 340
107 152 243 393 230 406 -2 2 -34 -41 -71 -97 -164 -242 -442 -579 -478 -579
-5 0 -8 16 -8 35 0 19 -7 53 -16 75 l-16 40 54 68 c174 216 334 466 545 852
47 85 90 158 95 161 5 3 9 9 9 13 -3 21 2 26 25 26 16 0 37 -12 55 -31z
m-5036 -27 c1 -16 -5 -24 -21 -28 -19 -5 -22 -11 -18 -34 7 -34 -11 -71 -31
-64 -8 4 -15 1 -15 -5 0 -6 5 -11 11 -11 13 0 8 -41 -8 -58 -18 -18 -53 2 -53
31 0 29 15 51 28 43 7 -4 10 8 9 35 -2 32 2 44 18 53 11 6 22 12 25 14 2 2 -2
7 -9 12 -12 7 -12 13 3 35 16 24 19 25 38 13 12 -8 22 -24 23 -36z m138 41
c-7 -2 -19 -2 -25 0 -7 3 -2 5 12 5 14 0 19 -2 13 -5z m194 1 c-3 -3 -12 -4
-19 -1 -8 3 -5 6 6 6 11 1 17 -2 13 -5z m2410 0 c-3 -3 -12 -4 -19 -1 -8 3 -5
6 6 6 11 1 17 -2 13 -5z m376 -34 c3 -11 1 -20 -4 -20 -5 0 -9 -7 -9 -16 0 -8
5 -12 10 -9 16 10 40 -14 40 -41 0 -12 -10 -30 -22 -38 -20 -14 -23 -14 -36 5
-8 12 -12 32 -9 49 5 23 2 29 -17 34 -28 7 -28 42 -1 62 21 16 40 5 48 -26z
m-2870 14 c-3 -12 -53 -18 -53 -6 0 5 3 12 6 15 10 9 49 2 47 -9z m2610 1 c1
-5 -13 -11 -30 -13 -27 -3 -32 0 -27 13 7 17 53 17 57 0z m-2359 -18 c7 -11 6
-25 -5 -48 l-15 -32 -17 26 c-14 22 -15 31 -5 52 12 28 26 28 42 2z m86 -17
c0 -25 -10 -50 -20 -50 -15 0 -28 55 -18 74 8 13 13 15 24 5 8 -6 14 -20 14
-29z m1147 21 c110 -22 153 -36 153 -51 0 -13 5 -14 -107 17 -85 23 -118 27
-248 27 -153 1 -147 2 -334 -50 -18 -5 -23 -4 -19 7 5 15 94 45 173 58 94 16
279 12 382 -8z m770 -41 c-6 -17 -15 -30 -19 -30 -15 0 -20 48 -8 71 12 21 14
21 25 5 10 -13 10 -24 2 -46z m102 10 c0 -3 -7 -14 -15 -25 -15 -20 -15 -20
-30 -1 -17 24 -18 48 -2 64 10 10 16 8 30 -10 10 -13 18 -25 17 -28z m-2718
-29 c-8 -19 -18 -28 -27 -24 -17 6 -18 22 -4 59 10 25 12 26 27 11 14 -13 14
-20 4 -46z m256 53 c-3 -3 -12 -4 -19 -1 -8 3 -5 6 6 6 11 1 17 -2 13 -5z m30
-26 c-3 -7 -5 -2 -5 12 0 14 2 19 5 13 2 -7 2 -19 0 -25z m101 -48 c-2 -44 -6
-80 -9 -80 -10 0 -18 53 -11 65 4 5 7 26 8 45 3 48 3 50 10 50 3 0 4 -36 2
-80z m59 74 c-3 -3 -12 -4 -19 -1 -8 3 -5 6 6 6 11 1 17 -2 13 -5z m2410 0
c-3 -3 -12 -4 -19 -1 -8 3 -5 6 6 6 11 1 17 -2 13 -5z m143 -16 c0 -18 -2 -20
-9 -8 -6 8 -7 18 -5 22 9 14 14 9 14 -14z m47 16 c-3 -3 -12 -4 -19 -1 -8 3
-5 6 6 6 11 1 17 -2 13 -5z m267 -40 c10 -44 -17 -54 -34 -13 -10 23 -10 32 0
44 16 19 26 10 34 -31z m-3149 6 c10 -47 -15 -68 -40 -33 -9 12 -10 23 -2 40
14 32 34 29 42 -7z m2610 -38 c-9 -9 -26 41 -19 56 5 13 9 8 15 -18 4 -19 6
-36 4 -38z m130 20 c1 -20 4 -41 5 -47 1 -5 1 -21 0 -35 l-2 -25 -8 25 c-10
31 -13 136 -3 127 3 -4 7 -24 8 -45z m250 28 c8 -26 -3 -60 -20 -60 -21 0 -27
17 -20 50 8 34 31 40 40 10z m-2626 3 c0 -5 -4 -17 -9 -28 -8 -18 -9 -17 -9 8
-1 15 4 27 9 27 6 0 10 -3 9 -7z m-174 -13 c4 -6 -5 -10 -20 -10 -15 0 -24 4
-20 10 3 6 12 10 20 10 8 0 17 -4 20 -10z m2611 -3 c4 -4 -2 -7 -14 -7 -12 0
-22 4 -22 9 0 10 26 9 36 -2z m-2666 -28 c0 -5 -4 -9 -8 -9 -5 0 -9 7 -9 15 0
8 4 12 9 9 4 -3 8 -9 8 -15z m1199 15 l31 -7 -26 -36 c-101 -139 -369 -282
-644 -345 -35 -9 -65 -14 -67 -12 -2 1 30 15 69 31 224 85 483 241 560 336 34
43 32 42 77 33z m219 -3 c21 -13 -10 -21 -78 -21 -32 0 -66 3 -75 6 -31 12 6
24 75 24 36 0 71 -4 78 -9z m165 -54 c101 -102 281 -210 487 -292 120 -48 131
-58 44 -38 -253 57 -536 207 -632 333 -31 40 -32 45 -15 51 38 16 56 7 116
-54z m1117 41 c0 -16 -3 -19 -11 -11 -6 6 -8 16 -5 22 11 17 16 13 16 -11z
m-2438 -43 c-6 -14 -16 -25 -21 -25 -17 0 -22 38 -9 59 11 18 14 19 27 6 12
-11 12 -19 3 -40z m93 36 c6 -19 -13 -61 -27 -61 -14 0 -20 50 -8 65 17 20 27
19 35 -4z m705 8 c0 -5 5 -7 10 -4 25 15 6 -15 -32 -52 -64 -61 -129 -107
-226 -160 -91 -50 -260 -131 -228 -110 10 6 66 44 126 83 103 68 283 206 310
239 14 17 40 20 40 4z m608 -12 c12 -13 19 -27 15 -32 -5 -4 -3 -5 4 -1 6 3
31 -11 56 -32 56 -49 191 -146 280 -201 37 -24 67 -45 67 -47 0 -8 -254 124
-316 164 -33 21 -86 64 -119 95 -49 46 -57 58 -45 67 23 15 34 12 58 -13z
m692 8 c13 -16 6 -65 -10 -65 -15 0 -32 39 -25 60 8 24 18 25 35 5z m100 -30
c0 -5 -4 -16 -9 -24 -8 -12 -12 -12 -25 -2 -19 16 -21 42 -4 59 9 9 14 7 24
-6 8 -9 13 -21 14 -27z m-2500 25 c0 -5 -4 -10 -10 -10 -5 0 -10 5 -10 10 0 6
5 10 10 10 6 0 10 -4 10 -10z m175 0 c3 -5 -1 -10 -9 -10 -9 0 -16 5 -16 10 0
6 4 10 9 10 6 0 13 -4 16 -10z m2435 0 c0 -5 -7 -10 -16 -10 -8 0 -12 5 -9 10
3 6 10 10 16 10 5 0 9 -4 9 -10z m170 0 c0 -5 -4 -10 -10 -10 -5 0 -10 5 -10
10 0 6 5 10 10 10 6 0 10 -4 10 -10z m-2911 -21 c11 -12 17 -28 14 -36 -5 -12
-1 -14 14 -9 22 7 33 -14 33 -67 0 -24 -2 -26 -19 -15 -11 7 -17 16 -15 20 3
4 0 8 -6 8 -7 0 -10 6 -7 14 8 19 -3 28 -19 15 -10 -8 -18 -7 -29 5 -14 13
-15 22 -5 51 6 19 13 35 15 35 2 0 13 -9 24 -21z m218 15 c-3 -3 -12 -4 -19
-1 -8 3 -5 6 6 6 11 1 17 -2 13 -5z m363 -21 c-1 -24 -2 -26 -11 -10 -5 9 -7
22 -4 27 10 17 15 11 15 -17z m1873 14 c3 -8 1 -20 -4 -28 -6 -10 -9 -7 -9 14
0 29 5 35 13 14z m374 7 c-3 -3 -12 -4 -19 -1 -8 3 -5 6 6 6 11 1 17 -2 13 -5z
m-2660 -56 c-2 -13 -4 -5 -4 17 -1 22 1 32 4 23 2 -10 2 -28 0 -40z m2894 20
c9 -35 -22 -69 -43 -47 -14 15 -15 34 -3 62 11 25 37 17 46 -15z m-204 -25
c-3 -10 -5 -2 -5 17 0 19 2 27 5 18 2 -10 2 -26 0 -35z m-1223 17 c17 -13 17
-14 -1 -21 -23 -10 -237 -11 -246 -2 -4 3 -1 13 7 22 20 22 214 23 240 1z
m-1424 0 c0 -5 -4 -10 -10 -10 -5 0 -10 5 -10 10 0 6 5 10 10 10 6 0 10 -4 10
-10z m2620 0 c0 -5 -4 -10 -10 -10 -5 0 -10 5 -10 10 0 6 5 10 10 10 6 0 10
-4 10 -10z m-2357 -20 c5 -18 -16 -40 -37 -40 -11 0 -6 36 6 48 17 17 25 15
31 -8z m2033 -36 c-6 -16 -8 -16 -25 0 -12 11 -17 25 -14 37 l6 21 20 -20 c12
-13 17 -27 13 -38z m81 11 c-5 -13 -11 -14 -27 -5 -17 9 -18 14 -9 32 10 18
12 19 26 5 9 -9 13 -23 10 -32z m73 -5 l0 -24 -15 21 c-8 12 -12 29 -9 38 9
22 24 0 24 -35z m505 33 c25 -34 -21 -88 -51 -59 -17 18 -18 42 -1 61 16 19
37 18 52 -2z m-2779 -4 c3 -6 -1 -18 -10 -27 -15 -15 -16 -14 -16 11 0 27 13
36 26 16z m167 -3 c3 -8 -3 -22 -13 -31 -18 -16 -20 -16 -26 -1 -6 16 11 46
26 46 4 0 10 -6 13 -14z m2446 -13 c9 -19 9 -29 2 -31 -6 -2 -9 -7 -6 -11 2
-5 -6 -13 -19 -19 -23 -10 -23 -10 -15 31 5 23 8 45 9 50 1 17 18 5 29 -20z
m-2765 -47 c1 -41 4 -43 22 -19 16 23 28 11 20 -21 -7 -29 -53 -86 -69 -86 -6
0 -21 10 -34 22 -19 17 -23 19 -17 5 8 -22 -7 -22 -37 1 -39 29 -72 40 -107
34 -27 -3 -31 -2 -26 12 7 18 -7 21 -22 6 -8 -8 -18 -5 -34 8 -23 19 -24 20
-6 46 22 34 49 30 57 -9 4 -17 7 -26 8 -21 0 4 10 -2 22 -15 l20 -24 -11 24
c-13 26 -10 25 42 -11 23 -16 27 -16 22 -4 -8 22 8 20 39 -4 l25 -20 -11 30
c-13 34 -1 53 17 27 19 -25 26 -21 26 14 0 17 5 40 11 51 10 18 13 19 26 5 9
-8 16 -31 17 -51z m2606 -9 l0 -39 19 23 c24 30 39 17 24 -21 l-11 -30 25 20
c31 24 47 26 39 4 -4 -11 1 -10 24 6 46 33 70 34 70 3 0 -23 -3 -25 -30 -20
-16 4 -32 2 -35 -3 -3 -6 -13 -10 -22 -10 -8 0 -26 -9 -40 -20 -32 -25 -47
-26 -39 -3 5 13 1 12 -18 -6 -15 -14 -31 -21 -43 -17 -23 8 -63 69 -63 98 l0
21 23 -21 22 -21 1 39 c1 22 7 47 14 56 13 14 15 14 27 -2 7 -10 13 -35 13
-57z m-1128 7 c84 -79 242 -160 453 -230 l130 -44 -155 3 c-126 3 -166 8 -212
25 -38 13 -58 17 -58 9 0 -25 146 -154 210 -186 l65 -32 -75 5 c-41 3 -93 9
-115 13 l-40 6 55 -47 c30 -26 74 -59 98 -73 23 -14 42 -28 42 -31 0 -12 -104
-84 -155 -108 -85 -40 -169 -56 -266 -52 -83 3 -87 2 -72 -15 27 -29 114 -65
174 -72 l57 -7 -54 -71 c-63 -84 -135 -218 -174 -326 l-28 -76 -81 -5 -80 -5
-27 75 c-40 111 -116 255 -178 336 l-55 72 56 7 c31 4 68 11 82 17 30 11 101
58 101 67 0 3 -38 4 -83 3 -102 -5 -184 14 -282 63 -76 39 -142 92 -129 104 5
4 38 28 74 53 36 25 74 56 85 68 l20 23 -35 -7 c-19 -4 -69 -9 -110 -12 l-75
-6 65 33 c60 31 230 182 219 194 -3 2 -34 -5 -69 -17 -52 -17 -96 -22 -215
-25 l-150 -3 132 45 c215 73 393 165 460 237 22 23 26 24 192 23 l170 0 33
-31z m1385 10 c16 -26 16 -27 -6 -45 -13 -11 -27 -19 -31 -19 -13 0 -22 39
-16 66 8 31 31 31 53 -2z m-2679 -2 c2 -7 -3 -12 -10 -12 -8 0 -23 -7 -34 -16
-18 -14 -18 -15 6 -8 l25 6 -22 -23 c-12 -12 -30 -23 -41 -24 -10 0 -29 -11
-42 -23 -23 -22 -50 -29 -50 -14 1 13 34 49 58 61 18 10 22 9 22 -5 0 -13 3
-14 15 -4 8 6 13 15 12 18 -1 4 7 19 18 34 20 28 36 31 43 10z m79 -16 c-8
-19 -37 -21 -37 -3 0 7 5 18 12 25 15 15 33 -1 25 -22z m2063 -2 c0 -16 -9
-17 -29 -5 -8 5 -11 16 -7 26 5 14 9 15 21 5 8 -7 15 -19 15 -26z m81 10 l24
-26 -30 13 c-39 17 -38 16 -30 28 8 15 8 15 36 -15z m-2201 -38 c0 -8 -7 -17
-16 -20 -30 -11 -37 -6 -19 14 21 23 35 26 35 6z m2175 -6 c18 -20 11 -25 -19
-14 -17 6 -23 34 -8 34 5 0 17 -9 27 -20z m52 -5 c15 -13 23 -25 16 -25 -7 0
-25 11 -40 25 -15 13 -23 25 -16 25 7 0 25 -11 40 -25z m-2158 -11 c-6 -8 -15
-14 -20 -14 -14 0 -11 28 4 33 20 7 29 -4 16 -19z m2031 0 c0 -8 -4 -14 -9
-14 -12 0 -32 26 -25 33 10 9 34 -4 34 -19z m213 -20 c11 -14 16 -28 13 -31
-11 -11 -57 21 -72 49 -14 27 -14 27 14 17 15 -5 35 -21 45 -35z m-2814 9 c8
-16 16 -34 20 -42 4 -8 14 -17 22 -19 8 -2 5 3 -6 12 -20 15 -20 15 5 16 28 0
90 -34 90 -50 0 -7 -22 -10 -57 -8 -54 3 -59 5 -85 43 -15 22 -27 48 -28 58 0
27 25 20 39 -10z m3181 11 c0 -8 -14 -35 -30 -60 -30 -43 -32 -44 -85 -44 -31
0 -55 5 -55 10 0 16 62 50 90 50 24 -1 24 -1 6 -15 -11 -8 -15 -15 -9 -15 14
0 26 18 30 43 6 37 53 65 53 31z m-3026 -46 l31 -19 -39 3 c-28 2 -43 10 -54
27 -16 23 -16 23 8 16 13 -4 37 -16 54 -27z m295 15 c-22 -28 -32 -33 -69 -33
l-35 1 50 24 c59 29 72 31 54 8z m71 7 c0 -5 -12 -10 -27 -10 -22 0 -25 2 -13
10 20 13 40 13 40 0z m2135 0 c18 -8 17 -9 -7 -9 -16 -1 -28 4 -28 9 0 12 8
12 35 0z m95 -15 c8 -7 22 -15 30 -18 8 -3 -1 -6 -20 -6 -37 -1 -47 4 -69 32
-13 17 -12 18 15 11 16 -4 36 -12 44 -19z m310 16 c0 -21 -33 -41 -67 -41 -42
0 -41 1 12 29 44 23 55 26 55 12z m-2560 -29 c0 -5 -10 -14 -22 -20 -15 -7
-18 -11 -8 -11 9 -1 26 6 38 15 19 13 22 13 22 1 0 -26 -27 -38 -79 -35 -60 4
-58 21 5 43 48 17 44 17 44 7z m2172 -29 c8 3 4 9 -12 16 -23 10 -21 11 15 6
22 -2 46 -13 53 -22 12 -17 9 -18 -38 -21 -53 -3 -80 9 -80 34 0 12 5 11 25
-2 13 -9 30 -14 37 -11z m-2627 -47 c-12 -8 -16 -19 -12 -30 10 -25 31 -14 35
16 3 23 7 26 47 25 41 0 44 -2 39 -23 -6 -25 7 -37 31 -28 10 4 15 14 12 25
-3 10 2 20 9 23 11 4 13 -1 8 -18 -6 -27 6 -39 30 -30 20 8 21 30 1 42 -11 6
-5 8 20 9 31 1 34 -1 19 -12 -22 -15 -11 -48 13 -43 12 3 17 12 16 28 -1 20 4
25 23 26 23 2 24 1 7 -11 -17 -13 -17 -15 -1 -31 20 -21 41 -9 34 20 -4 17 0
21 21 23 16 0 21 -2 14 -7 -17 -10 -10 -45 9 -45 10 0 14 9 13 28 -1 18 3 27
13 27 8 0 14 -10 14 -24 0 -29 17 -43 33 -27 9 9 8 17 -2 32 -10 18 -10 20 1
17 7 -3 14 -19 16 -36 l3 -32 -243 2 -243 3 -3 24 c-4 22 11 40 32 41 6 0 1
-6 -9 -14z m2613 7 c-20 -5 -24 -38 -6 -49 14 -9 38 23 31 42 -3 10 0 12 10 8
8 -3 13 -13 10 -24 -7 -25 16 -36 35 -16 16 16 16 18 -1 31 -17 12 -16 13 7
11 20 -1 24 -5 20 -22 -7 -29 14 -41 34 -20 16 16 16 18 -1 31 -17 12 -16 13
7 11 20 -1 24 -5 20 -22 -7 -29 14 -41 34 -20 16 16 16 18 -2 32 -19 13 -18
14 14 14 26 0 31 -3 22 -12 -17 -17 -15 -35 5 -42 24 -10 40 10 26 32 -10 17
-5 18 69 19 73 1 79 -1 75 -18 -6 -21 17 -44 33 -34 16 10 12 33 -7 45 -16 10
-16 10 2 8 15 -3 20 -11 20 -33 l0 -30 -242 -3 -243 -2 0 35 c0 30 3 35 23 34
16 -1 18 -2 5 -6z m-1588 -148 c-58 -62 -265 -125 -409 -125 -88 0 -308 17
-449 35 -125 16 -146 13 -138 -19 9 -35 77 -156 87 -156 6 0 25 11 42 24 88
67 234 88 575 84 l253 -3 -28 -23 c-15 -12 -46 -28 -68 -35 -44 -13 -243 -16
-290 -3 -26 7 -20 -2 51 -76 44 -46 95 -105 113 -131 34 -49 85 -157 75 -157
-3 0 -39 34 -80 75 -42 42 -112 103 -157 136 -82 61 -197 126 -197 111 0 -4
27 -31 60 -61 33 -29 85 -83 114 -119 58 -72 149 -213 141 -220 -10 -10 -243
150 -305 210 -14 13 -47 48 -74 77 -26 29 -52 49 -57 44 -4 -4 23 -52 62 -106
38 -54 69 -100 69 -103 0 -7 -103 52 -165 94 -112 77 -152 127 -232 289 -46
93 -73 159 -69 169 6 15 54 16 551 13 l544 -4 -19 -20z m2076 10 c5 -12 -18
-69 -69 -170 -70 -140 -81 -157 -146 -216 -64 -58 -239 -174 -249 -164 -2 2
28 48 67 103 39 55 71 102 71 106 0 15 -29 4 -43 -17 -35 -53 -151 -155 -269
-234 -70 -48 -130 -84 -132 -82 -9 9 83 153 144 226 33 40 87 95 120 122 33
28 56 52 52 55 -11 6 -88 -34 -162 -84 -70 -48 -232 -191 -255 -226 -27 -42
-28 -21 -1 39 36 82 94 163 177 246 41 41 66 71 57 68 -10 -4 -58 -9 -107 -13
-110 -8 -203 8 -258 44 l-40 27 251 3 c138 2 289 -1 337 -7 98 -11 200 -43
246 -77 17 -13 36 -24 42 -24 11 0 91 147 91 167 0 14 -32 25 -51 19 -27 -10
-308 -35 -455 -42 -127 -5 -163 -3 -247 14 -103 22 -183 55 -236 100 l-33 27
546 4 c515 3 546 2 552 -14z m-3184 -62 c8 -10 34 -54 57 -98 112 -211 198
-291 471 -443 72 -40 178 -131 245 -209 81 -95 117 -169 123 -255 7 -94 -14
-91 -51 8 -32 85 -97 186 -166 258 -25 26 -107 89 -181 138 -226 152 -314 229
-439 382 -96 118 -139 205 -114 229 12 13 40 7 55 -10z m3276 -10 c7 -51 -105
-212 -246 -350 -76 -75 -229 -191 -342 -259 -137 -82 -283 -261 -327 -401 -10
-32 -22 -53 -31 -53 -12 0 -14 13 -10 68 4 54 13 84 44 143 55 105 196 243
335 327 57 35 133 81 169 103 99 61 183 150 251 264 32 55 70 119 84 143 20
34 30 43 48 40 14 -2 23 -11 25 -25z m-3089 -98 c21 -34 31 -61 27 -72 -6 -14
-9 -15 -20 -2 -7 8 -21 34 -31 59 -9 25 -19 51 -22 58 -3 6 -1 12 4 12 5 0 24
-25 42 -55z m2891 51 c0 -21 -56 -126 -66 -126 -8 0 -14 6 -14 13 0 18 59 117
70 117 6 0 10 -2 10 -4z m-3117 -71 c117 -173 283 -334 461 -447 55 -35 101
-69 104 -75 2 -9 -9 -13 -36 -13 -44 0 -63 12 -178 112 -112 99 -214 141 -370
155 -110 9 -176 -3 -235 -43 -59 -39 -66 -37 -98 30 -67 137 23 310 174 337
22 4 62 6 89 5 48 -1 49 -2 89 -61z m358 54 l37 -12 -28 -23 c-15 -13 -32 -24
-38 -24 -18 0 -34 29 -27 50 7 23 7 23 56 9z m2627 -21 c-4 -41 -24 -45 -62
-14 l-29 25 34 9 c56 17 61 15 57 -20z m366 20 c-5 -9 -2 -9 9 1 13 10 33 12
79 7 134 -16 217 -98 226 -227 5 -65 -8 -111 -41 -153 l-23 -29 -42 30 c-61
44 -117 57 -225 50 -177 -11 -275 -52 -405 -166 -104 -92 -119 -101 -167 -101
-55 0 -41 17 67 85 175 110 325 252 442 420 44 62 73 95 84 95 2 0 0 -6 -4
-12z m-2319 -166 c69 -63 174 -117 277 -143 46 -11 85 -23 88 -26 3 -3 -49 -3
-115 -1 -111 4 -125 7 -184 37 -71 36 -171 124 -171 151 0 46 42 39 105 -18z
m1319 42 c51 -20 -35 -114 -164 -179 -49 -25 -68 -29 -175 -33 -66 -2 -118 -2
-115 1 3 3 42 15 88 26 104 26 209 80 276 143 52 48 62 53 90 42z m-1432 -51
c97 -102 205 -263 175 -263 -22 0 -86 46 -145 103 -66 64 -162 180 -162 196 0
6 17 11 43 11 38 0 48 -5 89 -47z m1588 36 c0 -18 -105 -142 -176 -208 -65
-61 -121 -98 -132 -87 -16 17 113 202 188 269 32 30 48 37 80 37 23 0 40 -5
40 -11z m-1687 -218 c57 -55 125 -153 161 -235 29 -66 66 -180 66 -205 0 -10
-33 16 -85 67 -48 46 -117 103 -154 127 -86 56 -153 113 -222 190 l-54 60 50
-38 c79 -60 185 -131 249 -167 57 -32 58 -32 51 -9 -9 32 -91 175 -125 219
-15 19 -35 49 -46 65 l-19 30 40 -29 c22 -16 62 -50 88 -75z m1735 32 c-48
-62 -131 -203 -143 -241 l-7 -23 34 17 c59 31 162 97 223 144 100 78 103 74
14 -21 -41 -44 -141 -125 -204 -164 -33 -21 -98 -75 -144 -121 -47 -46 -86
-84 -87 -84 -2 0 7 33 18 73 40 143 107 272 191 363 50 55 138 127 145 119 2
-2 -16 -30 -40 -62z m-1356 -112 c75 -70 75 -48 1 31 l-58 60 45 -7 c54 -9 55
-9 123 -93 67 -82 136 -202 176 -302 46 -118 46 -120 19 -120 -18 1 -36 21
-83 92 -32 50 -96 131 -141 179 -97 104 -204 242 -204 264 0 6 45 -32 122
-104z m1018 100 c0 -18 -121 -172 -207 -265 -49 -52 -113 -132 -143 -179 -42
-66 -60 -86 -78 -86 -27 -1 -26 2 15 109 53 135 125 253 210 347 40 44 55 54
93 60 l45 6 -57 -62 c-32 -34 -58 -67 -58 -72 0 -10 161 128 168 144 5 10 12
9 12 -2z m-3205 -116 c49 -93 109 -169 228 -292 54 -56 96 -106 93 -111 -3 -5
-6 -32 -7 -61 -1 -28 -5 -51 -8 -51 -11 0 -143 118 -194 173 l-48 52 19 -40
c26 -53 96 -147 172 -231 35 -39 75 -97 95 -138 18 -39 33 -72 32 -73 -5 -5
-196 144 -268 209 -104 93 -142 146 -175 244 -24 68 -28 95 -28 194 -1 102 2
120 22 158 13 24 25 42 27 40 2 -1 20 -34 40 -73z m5350 -6 c30 -85 9 -272
-42 -373 -48 -94 -164 -209 -349 -345 l-82 -59 24 41 c13 23 29 58 35 77 7 19
39 63 72 97 72 75 137 160 174 228 l27 50 -80 -80 c-76 -78 -164 -153 -164
-141 0 3 0 7 -1 9 -1 1 -5 26 -10 56 l-8 54 102 106 c121 126 185 209 228 297
30 60 33 63 46 45 7 -11 20 -39 28 -62z m-3282 -63 c12 -14 10 -5 -7 26 -14
26 -26 49 -26 52 0 12 80 -35 104 -61 37 -40 145 -341 134 -374 -2 -6 -43 44
-92 111 -48 67 -113 148 -143 181 -54 57 -72 98 -73 159 0 23 4 21 43 -24 23
-28 50 -59 60 -70z m1231 49 c-5 -39 -17 -59 -71 -119 -36 -39 -102 -122 -146
-185 -51 -70 -83 -108 -85 -98 -6 27 100 326 127 362 22 28 111 85 111 70 0
-2 -10 -20 -21 -40 -30 -51 -18 -53 22 -4 68 84 74 85 63 14z m-2099 16 l40
-9 -36 -1 c-97 -3 -261 -63 -344 -126 -124 -95 -293 -87 -362 17 -14 21 -24
41 -21 44 3 2 23 -5 44 -18 70 -41 184 -27 321 39 121 58 246 77 358 54z
m3106 -7 c30 -9 87 -32 128 -51 88 -41 198 -68 244 -59 18 3 51 15 72 26 21
11 41 18 43 15 12 -12 -44 -75 -90 -100 -89 -48 -198 -33 -295 41 -80 61 -245
122 -342 125 l-36 2 40 7 c73 13 180 10 236 -6z m-3126 -99 c-38 -14 -71 -25
-73 -25 -16 -1 -94 -90 -102 -116 -7 -19 -16 -32 -21 -29 -16 10 -10 89 9 111
34 42 135 83 207 83 l50 -1 -70 -23z m2981 8 c98 -33 133 -67 134 -130 0 -55
-13 -61 -33 -15 -27 60 -77 101 -164 133 l-78 28 46 0 c25 1 68 -6 95 -16z
m-2055 -163 c27 -40 46 -92 63 -171 5 -25 2 -27 -60 -44 -56 -15 -67 -16 -75
-4 -7 11 -9 10 -9 -4 0 -15 -35 -37 -58 -37 -4 0 -17 40 -28 88 -18 74 -48
156 -72 197 -4 6 18 -11 48 -37 49 -41 117 -114 165 -173 15 -19 16 -18 10 20
-5 33 -58 200 -89 280 -10 27 68 -59 105 -115z m1160 111 c-7 -5 -12 -11 -12
-15 1 -3 -14 -56 -33 -117 -20 -60 -38 -127 -42 -147 l-7 -36 59 63 c32 35 64
71 71 81 6 9 32 33 57 54 l45 36 -28 -62 c-16 -35 -37 -99 -46 -143 -10 -44
-19 -81 -20 -83 -7 -9 -65 23 -65 36 0 14 -2 14 -9 3 -8 -12 -19 -11 -71 5
l-62 18 6 50 c3 27 17 74 31 103 28 55 124 177 134 168 3 -4 0 -10 -8 -14z
m-4359 -20 c129 -45 342 -165 573 -323 72 -50 163 -111 203 -136 39 -26 75
-55 78 -65 3 -10 26 -43 50 -73 43 -52 43 -54 19 -54 -13 0 -75 28 -137 62
-196 107 -652 316 -613 280 6 -5 135 -86 288 -181 152 -95 277 -174 277 -176
0 -2 -13 -18 -29 -35 l-28 -32 -144 57 c-174 69 -362 159 -444 213 -149 96
-315 339 -315 459 l0 36 83 -6 c45 -3 107 -15 139 -26z m7678 -6 c0 -129 -179
-379 -342 -475 -93 -56 -254 -130 -421 -196 l-139 -54 -29 31 c-16 17 -29 33
-29 34 0 2 42 29 93 61 266 165 463 288 472 296 32 30 -306 -123 -552 -249
-100 -51 -191 -93 -203 -93 -21 0 -21 2 8 34 16 19 39 51 51 72 15 26 48 56
99 90 42 28 165 110 273 182 244 163 469 278 579 295 14 2 51 4 83 5 l57 1 0
-34z m-4204 -148 c31 -43 55 -79 53 -81 -2 -2 -13 -6 -23 -8 -19 -3 -50 42
-134 197 l-33 60 40 -45 c22 -25 66 -80 97 -123z m613 106 c-17 -32 -41 -74
-53 -93 -12 -19 -28 -48 -37 -65 -11 -20 -25 -31 -43 -33 -14 -2 -26 0 -26 3
0 16 174 245 186 245 3 0 -9 -26 -27 -57z m-679 -115 c35 -71 38 -83 24 -91
-28 -16 -41 0 -53 65 -7 34 -15 73 -18 86 -10 44 9 20 47 -60z m673 -6 c-15
-83 -28 -102 -57 -85 -12 7 -9 21 25 92 21 46 41 82 43 80 2 -2 -3 -41 -11
-87z m-2540 -74 c-2 -4 0 -7 5 -6 4 2 52 -42 108 -97 55 -55 168 -165 250
-245 181 -175 207 -217 208 -338 1 -104 -15 -145 -90 -222 -82 -85 -105 -137
-102 -227 1 -57 -4 -81 -33 -153 -30 -75 -44 -94 -114 -164 -102 -100 -123
-105 -221 -50 -38 20 -69 38 -70 38 -1 1 4 38 11 84 7 48 19 90 29 101 18 20
58 33 154 52 58 11 85 29 68 46 -3 4 -47 -1 -97 -11 -109 -21 -158 -15 -204
25 -35 31 -75 102 -75 133 0 9 27 44 59 78 l60 61 78 -5 c52 -3 99 -14 141
-31 53 -22 64 -24 69 -11 8 20 5 22 -63 39 -64 17 -188 73 -235 106 -39 28
-69 88 -72 146 -2 48 -2 48 43 71 88 44 147 26 301 -90 49 -37 94 -68 100 -68
30 0 -10 53 -141 187 -80 81 -158 164 -172 183 -77 103 -106 220 -87 351 6 44
15 82 20 84 4 3 5 13 2 23 -3 9 12 -5 33 -32 21 -27 38 -53 37 -58z m4464 -63
c7 -196 -15 -238 -250 -481 -138 -142 -178 -194 -148 -194 6 0 51 31 100 68
154 116 213 134 301 90 45 -23 45 -23 43 -71 -3 -58 -33 -118 -72 -146 -47
-33 -171 -89 -235 -106 -67 -17 -71 -19 -63 -39 5 -12 16 -10 69 12 42 17 89
27 141 30 l78 5 60 -61 c32 -34 59 -69 59 -78 0 -29 -43 -105 -77 -134 -44
-39 -101 -46 -202 -25 -85 19 -122 15 -102 -9 6 -7 50 -22 96 -31 47 -10 98
-26 115 -36 31 -19 34 -27 47 -129 l8 -65 -65 -37 c-103 -59 -130 -53 -227 51
-43 45 -68 82 -80 116 -9 27 -27 74 -41 105 -16 37 -24 71 -23 103 3 84 -14
121 -93 205 -85 91 -101 127 -101 232 0 134 39 188 323 453 103 96 216 210
252 254 78 96 80 94 87 -82z m-1837 64 c-12 -40 -17 -46 -32 -31 -9 9 -6 18
12 37 13 14 25 25 26 25 1 0 -1 -14 -6 -31z m-852 -4 c12 -14 20 -25 18 -25
-3 0 -11 -3 -19 -6 -10 -3 -18 5 -25 25 -13 38 -3 40 26 6z m771 -34 c230 -44
516 -160 711 -290 414 -274 723 -709 844 -1186 50 -197 60 -285 60 -520 0
-258 -14 -361 -80 -592 -15 -51 -15 -51 -67 -63 -108 -24 -100 -32 -66 67 37
110 76 301 85 414 l7 85 -332 -36 c-182 -21 -334 -40 -337 -42 -3 -3 66 -123
152 -268 120 -199 154 -264 144 -270 -14 -8 -218 -26 -224 -19 -2 2 -132 184
-290 404 l-288 400 586 3 586 2 0 45 0 45 -619 0 -619 0 -26 35 -27 35 641 0
641 0 -6 38 c-14 80 63 72 -685 72 l-668 0 -17 28 c-10 15 -104 146 -210 292
-228 316 -211 290 -187 290 11 0 115 -84 241 -196 l222 -196 272 -24 c847 -75
988 -86 992 -82 11 10 -70 241 -124 353 -109 227 -206 363 -385 540 -334 329
-741 509 -1206 531 -714 35 -1392 -371 -1716 -1030 -61 -122 -154 -380 -142
-392 5 -5 510 37 1091 91 l157 14 221 196 c126 111 230 195 241 195 24 0 43
29 -207 -318 l-210 -292 -662 0 -663 0 0 -24 c0 -13 -3 -38 -6 -55 l-6 -31
631 0 632 0 -27 -35 -26 -35 -609 0 -609 0 0 -45 0 -45 576 0 576 0 -18 -27
c-9 -16 -63 -91 -119 -168 -56 -77 -177 -246 -270 -375 -92 -129 -169 -237
-171 -239 -6 -7 -210 11 -224 19 -11 7 23 69 144 270 86 145 155 265 152 268
-8 8 -636 75 -643 69 -18 -19 39 -328 88 -475 17 -51 29 -96 26 -98 -10 -10
-122 16 -133 31 -12 16 -54 164 -74 258 -6 26 -17 105 -25 175 -117 997 522
1940 1475 2176 190 47 268 55 500 52 169 -3 240 -8 329 -25z m-3061 -66 c88
-28 117 -45 247 -149 50 -40 144 -111 210 -159 66 -47 133 -100 150 -117 l30
-31 -45 20 c-25 11 -55 21 -67 21 -13 0 -69 31 -125 69 -95 64 -291 171 -312
171 -10 0 160 -137 261 -210 34 -25 62 -47 62 -50 0 -8 -69 -50 -82 -50 -21 0
-179 74 -257 120 -41 24 -96 64 -123 88 -60 57 -116 166 -124 245 l-6 57 51 0
c28 0 87 -11 130 -25z m5579 -32 c-7 -69 -52 -165 -106 -225 -23 -26 -75 -68
-116 -93 -74 -47 -259 -135 -282 -135 -7 0 -28 11 -48 24 l-35 24 47 39 c27
21 82 64 123 95 41 30 93 72 115 92 33 30 36 34 15 27 -47 -16 -235 -123 -312
-177 -42 -30 -87 -54 -100 -54 -12 0 -43 -10 -68 -21 l-45 -20 30 31 c17 17
81 68 144 113 62 45 148 109 190 142 201 159 273 193 405 192 l48 0 -5 -54z
m-6547 -144 c94 -23 237 -81 464 -187 146 -68 149 -71 171 -117 20 -40 21 -46
7 -42 -10 2 -120 36 -245 75 -223 70 -334 98 -356 91 -21 -7 430 -192 681
-279 l96 -34 -61 -25 -62 -24 -90 18 c-385 77 -701 189 -852 302 -128 96 -200
227 -135 247 41 13 300 -4 382 -25z m7732 14 c10 -9 18 -22 18 -30 0 -49 -100
-168 -191 -226 -109 -69 -273 -141 -428 -187 -93 -27 -450 -110 -476 -110 -11
0 -45 10 -77 23 l-56 23 96 34 c240 83 692 267 692 281 0 4 -8 5 -17 3 -112
-25 -260 -66 -414 -115 -103 -32 -190 -59 -192 -59 -2 0 6 21 18 46 22 46 23
47 211 134 376 174 451 195 703 199 75 1 98 -2 113 -16z m-6868 -194 c-140
-18 -172 -39 -160 -105 9 -44 81 -108 141 -123 79 -20 81 -11 7 25 -105 51
-141 115 -85 151 22 14 48 18 133 18 103 0 106 -1 186 -42 44 -23 109 -53 144
-67 35 -15 67 -32 72 -39 7 -11 11 -57 5 -57 -2 0 -63 20 -137 45 -73 25 -135
43 -137 41 -2 -1 64 -35 145 -74 99 -47 161 -84 188 -110 21 -21 48 -44 59
-50 57 -31 -22 -20 -263 37 -340 80 -395 104 -468 200 -39 50 -43 87 -14 124
25 31 39 34 155 34 89 0 89 0 29 -8z m5766 -7 c69 -34 66 -94 -8 -170 -82 -85
-127 -100 -609 -212 -105 -24 -131 -19 -80 16 19 13 43 34 53 48 11 14 83 55
177 99 87 41 161 78 164 81 3 3 -61 -17 -142 -44 -82 -27 -150 -48 -153 -46
-2 3 -1 18 3 34 5 25 16 34 63 53 31 12 98 42 147 67 80 40 99 45 175 49 92 5
155 -9 174 -40 9 -13 6 -26 -9 -54 -15 -28 -38 -46 -95 -76 -74 -38 -74 -38
-31 -32 98 13 181 86 181 159 0 36 -32 53 -130 70 l-85 14 85 1 c63 1 94 -4
120 -17z m-6445 -302 c98 -16 308 -56 446 -86 25 -6 26 -9 22 -48 -3 -22 -7
-43 -9 -45 -3 -3 -109 3 -237 13 -127 10 -259 19 -292 22 l-60 4 75 -26 c89
-30 326 -79 465 -96 82 -9 117 -19 190 -54 l90 -43 -55 0 c-67 -1 -705 36
-775 45 -121 15 -271 98 -364 200 -52 57 -66 99 -36 110 74 29 378 31 540 4z
m7490 3 c22 -7 31 -16 33 -35 7 -58 -183 -215 -310 -256 -83 -28 -98 -29 -491
-52 -356 -21 -444 -24 -434 -14 3 3 41 22 84 41 57 25 107 39 183 49 149 21
390 71 474 99 l71 25 -75 -5 c-41 -3 -151 -12 -245 -20 -93 -8 -193 -15 -221
-15 l-52 0 -4 43 c-3 23 -4 43 -3 45 3 4 392 81 490 97 98 16 445 14 500 -2z
m-2623 -26 l17 -22 -172 -5 -172 -6 181 -2 180 -2 22 -30 23 -30 -196 0 -195
0 0 -160 c0 -88 3 -160 8 -160 4 0 30 15 57 33 58 38 295 177 343 201 32 17
34 17 48 -1 7 -10 14 -22 14 -28 0 -5 -44 -34 -98 -64 -53 -30 -158 -92 -233
-137 l-135 -83 4 -61 4 -60 -57 0 -57 0 4 60 c5 70 13 61 -127 150 -138 87
-307 174 -386 198 -281 86 -659 86 -938 0 -84 -26 -238 -103 -360 -180 -53
-34 -108 -68 -123 -77 -26 -15 -28 -21 -28 -83 l0 -68 -55 0 -55 0 0 43 c0 24
5 48 12 55 8 8 8 15 3 21 -15 14 -232 144 -350 210 l-103 57 15 27 c7 15 17
27 22 27 10 0 238 -131 331 -191 43 -27 80 -49 83 -49 4 0 7 72 7 160 l0 160
-185 0 -186 0 23 30 22 30 170 2 171 2 -164 6 -163 5 18 22 c18 21 28 23 159
25 77 2 689 2 1360 0 l1220 -2 17 -23z m-3922 -58 c118 -23 217 -43 219 -45 3
-2 -9 -18 -25 -35 l-29 -31 -165 5 c-91 3 -156 2 -145 -2 11 -4 79 -20 152
-36 126 -26 132 -29 142 -56 9 -27 8 -29 -24 -35 -19 -3 -119 -5 -223 -3 -187
4 -189 4 -247 34 -69 35 -97 69 -98 118 -1 45 22 72 88 103 68 32 106 31 355
-17z m5440 14 c30 -16 63 -40 74 -55 20 -28 20 -28 0 -75 -23 -57 -82 -98
-163 -113 -58 -11 -349 -14 -399 -4 -28 6 -30 8 -21 34 10 26 17 29 142 55 73
16 141 32 152 36 11 4 -54 6 -145 2 l-165 -5 -33 34 -32 34 92 17 c51 9 149
28 218 41 169 33 213 33 280 -1z m-4578 -115 c-5 -7 -28 -47 -51 -88 -35 -65
-41 -71 -41 -45 0 31 27 83 63 123 21 23 48 32 29 10z m3429 -71 c31 -60 17
-66 -16 -6 -39 71 -41 77 -21 60 10 -8 26 -32 37 -54z m-1721 -59 c0 -7 20
-395 45 -863 25 -467 45 -853 45 -857 0 -5 -54 -8 -120 -8 l-120 0 0 33 c0 31
14 322 24 502 3 50 17 335 32 635 14 300 27 551 29 558 3 6 18 12 35 12 17 0
30 -5 30 -12z m-2390 -56 c0 -5 9 -18 19 -29 l20 -21 -122 -22 c-115 -21 -217
-46 -142 -35 17 2 84 7 150 11 66 3 128 8 137 9 9 2 30 -1 46 -7 l29 -11 -25
-38 -24 -37 -162 -31 c-226 -43 -281 -47 -349 -26 -182 57 -127 208 88 238 57
8 335 7 335 -1z m5141 -20 c132 -52 148 -148 33 -207 -55 -28 -182 -25 -354 9
-176 35 -191 41 -216 80 l-21 33 26 9 c17 6 84 6 186 -1 216 -15 216 -13 2 26
-65 12 -114 25 -109 28 5 3 15 17 21 30 l13 23 181 -4 c156 -4 190 -8 238 -26z
m-5689 -52 c-29 -45 -27 -44 -162 -59 -52 -6 -171 -23 -265 -38 l-170 -28 70
-8 c39 -4 174 -5 300 -2 l230 6 24 -25 c14 -14 30 -26 38 -26 7 0 13 -4 13 -8
0 -9 -328 -56 -512 -73 -65 -6 -184 -9 -265 -7 -123 4 -157 8 -202 27 -69 28
-122 70 -146 115 -16 29 -17 37 -5 51 30 36 169 91 264 105 28 4 223 8 433 9
l382 1 -27 -40z m6601 29 c82 -13 210 -60 252 -93 37 -29 29 -52 -43 -122 -67
-67 -108 -89 -193 -104 -79 -15 -119 -11 -542 47 l-339 46 39 34 38 33 210 -6
c116 -4 251 -3 300 1 l90 8 -90 18 c-49 9 -169 27 -265 39 -228 28 -212 23
-242 70 l-27 40 370 0 c219 0 400 -4 442 -11z m-5963 -186 c-1 -43 -14 -52
-156 -103 -80 -29 -143 -54 -142 -55 2 -2 68 10 148 27 l144 30 18 -22 c10
-12 16 -25 13 -29 -2 -4 -50 -31 -107 -59 -128 -64 -247 -97 -312 -88 -61 10
-106 47 -106 89 0 59 58 135 116 151 16 5 10 -5 -22 -38 -54 -56 -65 -99 -34
-131 29 -31 68 -39 119 -25 61 16 56 25 -15 25 -108 0 -122 42 -42 129 l43 46
140 25 c77 14 145 27 150 29 18 7 45 6 45 -1z m4740 -28 l135 -25 43 -46 c80
-87 66 -128 -42 -129 -71 0 -76 -9 -15 -25 50 -14 90 -6 118 23 18 20 19 28
10 60 -5 21 -24 53 -41 73 -17 19 -29 37 -26 39 11 11 74 -43 95 -80 32 -57
30 -97 -7 -129 -45 -38 -106 -43 -204 -17 -72 19 -280 113 -291 132 -3 4 3 17
13 29 l18 23 143 -30 c78 -17 139 -27 134 -23 -4 4 -66 28 -138 54 -131 48
-145 56 -145 90 0 16 5 17 33 12 17 -4 93 -18 167 -31z m-5242 -73 c-20 -36
-29 -40 -142 -79 -127 -43 -370 -143 -363 -149 3 -4 187 50 365 107 51 16 94
29 96 29 2 0 6 -14 8 -30 5 -30 4 -31 -171 -116 -227 -111 -273 -130 -482
-199 -237 -77 -263 -75 -369 22 l-52 48 16 39 c27 64 85 135 125 152 20 8 144
46 276 83 205 59 269 72 440 95 110 14 211 27 225 29 14 3 30 5 37 6 7 0 3
-14 -9 -37z m5668 14 c54 -9 167 -27 249 -40 83 -14 206 -32 274 -41 147 -19
234 -45 288 -84 40 -29 133 -156 133 -182 0 -15 -67 -63 -140 -100 -58 -31
-178 -33 -260 -5 -86 29 -392 162 -520 225 -110 56 -115 59 -112 87 2 16 5 30
7 32 1 1 40 -9 86 -24 167 -53 373 -113 376 -110 6 6 -238 107 -358 147 -120
41 -127 45 -147 82 l-21 39 22 -6 c13 -3 68 -12 123 -20z m-4809 -68 c-9 -44
-12 -49 -17 -28 -6 25 -6 25 -14 3 -4 -13 -4 -44 -1 -70 l6 -48 -25 28 c-41
44 -32 88 28 139 17 15 31 28 32 28 1 0 -4 -24 -9 -52z m3872 5 c29 -35 36
-69 22 -99 -15 -33 -31 -22 -31 20 0 19 -7 50 -15 70 -18 42 -5 47 24 9z
m-4142 -53 c-7 -8 -37 -44 -67 -80 -85 -103 -87 -106 -45 -72 146 117 181 139
223 145 33 4 42 2 42 -10 0 -17 -59 -111 -148 -236 -75 -105 -102 -120 -211
-121 l-86 -1 -3 93 c-4 130 7 146 156 243 94 61 120 74 134 65 14 -8 15 -13 5
-26z m4507 -40 c143 -90 159 -113 157 -236 0 -47 -3 -90 -7 -96 -5 -7 -35 -9
-90 -5 -125 7 -140 20 -288 242 -65 99 -82 143 -50 131 9 -3 28 -6 43 -6 19 0
56 -23 121 -76 52 -42 102 -82 110 -88 16 -12 -17 31 -99 129 -27 33 -47 63
-45 67 11 17 39 5 148 -62z m-4305 -78 l19 -38 -40 -90 c-46 -103 -59 -134
-54 -134 1 0 20 26 42 57 l39 57 3 -102 c2 -78 -1 -109 -13 -132 -25 -48 -70
-70 -141 -70 l-61 0 -23 70 c-13 42 -20 80 -16 95 7 28 206 325 218 325 4 0
16 -17 27 -38z m4101 -116 c56 -82 104 -162 107 -177 3 -16 -4 -55 -17 -93
l-22 -66 -61 0 c-63 0 -121 24 -133 53 -2 7 -3 60 -2 117 l3 104 32 -49 c18
-28 33 -47 33 -44 0 3 -18 47 -39 97 -51 120 -56 143 -36 182 9 17 20 30 25
28 5 -2 55 -70 110 -152z m-4867 128 c9 -4 17 -9 17 -13 -1 -3 -100 -73 -220
-156 -121 -82 -220 -150 -220 -152 0 -13 265 131 417 228 55 35 103 59 120 59
15 0 53 7 83 15 30 8 56 12 59 9 6 -6 10 -3 -339 -239 -163 -110 -318 -216
-345 -236 -51 -38 -158 -79 -204 -79 -13 0 -51 5 -83 12 -68 14 -72 21 -73
135 0 66 2 74 29 102 16 17 45 36 65 42 33 11 191 80 526 230 72 32 135 56
140 54 6 -3 18 -8 28 -11z m5588 -10 c14 -7 126 -56 250 -109 123 -53 245
-110 271 -126 53 -35 129 -112 152 -157 22 -43 21 -114 -3 -143 -40 -50 -211
-31 -341 37 -25 13 -115 75 -200 138 -181 134 -459 338 -474 348 -23 15 3 17
54 3 30 -8 67 -15 81 -15 15 0 85 -36 165 -85 125 -78 393 -221 369 -198 -13
12 -105 76 -278 192 -75 51 -140 98 -143 103 -9 15 29 38 51 31 11 -3 32 -11
46 -19z m-5366 -127 c-5 -23 -20 -48 -43 -69 -183 -166 -392 -361 -392 -365 0
-7 246 163 344 239 49 37 92 68 97 68 15 0 21 -41 7 -57 -7 -9 -88 -103 -179
-209 -91 -105 -188 -219 -215 -252 -27 -33 -67 -72 -89 -87 -37 -24 -46 -26
-110 -21 -38 3 -89 8 -112 12 l-41 6 -7 74 c-9 87 1 117 54 172 49 50 189 162
411 326 102 76 192 143 200 149 8 7 28 22 44 35 16 12 31 20 33 18 2 -2 1 -20
-2 -39z m5145 -27 c615 -460 650 -491 650 -577 0 -22 -3 -61 -6 -85 -6 -45 -7
-46 -53 -53 -25 -5 -81 -9 -123 -9 -75 -1 -78 0 -114 34 -20 19 -97 107 -172
195 -75 88 -175 204 -224 258 -78 87 -86 100 -75 118 6 10 15 19 18 19 4 0 46
-31 95 -68 49 -38 148 -108 219 -157 149 -100 146 -96 -110 139 -77 71 -153
141 -168 156 -18 17 -31 41 -34 65 -6 44 -10 45 97 -35z m-4890 -141 c0 -6
-26 -47 -59 -92 -54 -76 -150 -232 -215 -352 l-27 -50 46 50 c25 28 96 114
158 192 62 78 115 142 118 143 4 0 11 -18 16 -39 10 -37 7 -44 -46 -137 -31
-55 -104 -184 -161 -288 -58 -104 -115 -195 -127 -203 -22 -15 -180 -46 -192
-38 -4 2 -24 37 -44 78 -39 78 -46 131 -25 170 6 12 77 103 157 201 80 99 172
211 203 250 32 39 63 70 69 68 6 -1 8 1 5 6 -12 20 25 36 117 51 4 0 7 -4 7
-10z m4637 -10 c11 -4 57 -52 101 -106 45 -54 138 -168 208 -253 69 -85 135
-168 145 -185 30 -47 24 -96 -21 -186 l-41 -80 -37 6 c-104 17 -143 28 -161
43 -11 9 -72 112 -137 227 -64 116 -136 243 -159 284 -39 69 -41 78 -32 113
11 45 19 47 41 13 20 -30 201 -254 251 -310 l36 -40 -22 45 c-34 72 -153 268
-213 354 -31 44 -56 83 -56 87 0 8 62 1 97 -12z m-4407 -187 c0 -4 -9 -41 -21
-82 -64 -230 -89 -323 -86 -326 2 -2 39 79 83 179 44 100 84 182 90 182 5 0
13 -30 17 -66 8 -58 5 -78 -23 -180 -17 -63 -36 -134 -41 -159 -23 -112 -53
-201 -73 -221 -19 -18 -157 -79 -179 -79 -8 0 -57 53 -99 109 -49 65 -43 86
99 355 152 290 148 284 181 289 48 7 52 7 52 -1z m4162 -9 c4 -2 13 -16 21
-31 7 -15 36 -70 64 -122 231 -436 223 -407 136 -517 -32 -40 -63 -72 -70 -73
-6 0 -49 16 -96 36 -104 43 -111 55 -157 267 -5 23 -20 81 -33 128 -23 79 -24
92 -14 167 6 45 14 82 17 82 3 0 12 -17 21 -38 9 -20 42 -97 74 -170 32 -73
59 -131 61 -129 3 2 -21 93 -51 202 -30 109 -55 202 -55 207 0 8 64 1 82 -9z
m-4038 -305 c6 -31 3 -39 -15 -49 -21 -11 -22 -10 -15 31 6 41 15 65 21 58 1
-2 5 -20 9 -40z m3864 -57 c-15 -6 -20 7 -12 31 l8 23 6 -25 c3 -14 2 -27 -2
-29z m-3838 -140 c249 -87 969 -141 1883 -141 917 0 1649 54 1892 139 32 12
60 20 61 18 7 -7 -146 -293 -164 -305 -73 -49 -422 -99 -927 -133 -252 -17
-1176 -23 -1477 -10 -562 25 -1014 77 -1133 130 -37 17 -46 31 -118 170 -43
83 -77 151 -75 151 2 0 28 -9 58 -19z m214 -540 c3 -5 -1 -25 -9 -44 -9 -21
-12 -48 -9 -66 5 -21 -1 -45 -20 -82 -32 -66 -34 -136 -5 -221 12 -37 18 -72
14 -87 -10 -39 -51 -88 -95 -113 -22 -13 -40 -26 -40 -30 0 -12 7 -10 49 12
44 22 72 53 92 102 l13 33 12 -40 c10 -35 9 -44 -9 -68 -62 -89 -167 -114
-245 -58 -57 42 -60 51 -14 51 53 0 101 34 120 85 11 33 12 56 3 126 -25 196
-9 280 69 361 46 47 63 57 74 39z m3421 -32 c80 -73 103 -192 73 -368 -22
-127 28 -211 124 -211 46 0 43 -9 -14 -51 -58 -41 -128 -41 -185 0 -61 44 -82
79 -71 119 5 17 10 32 12 32 2 0 17 -22 34 -49 30 -48 105 -102 120 -85 4 4 1
9 -6 11 -32 12 -97 71 -115 106 -20 38 -20 38 2 110 29 98 28 162 -5 223 -18
33 -24 57 -20 76 3 16 0 46 -8 68 -9 27 -10 42 -3 49 15 15 12 16 62 -30z
m-3255 11 c0 -13 -7 -20 -20 -20 -25 0 -26 16 -2 29 23 14 22 14 22 -9z m3045
0 c18 -19 17 -20 -3 -20 -15 0 -22 6 -22 20 0 11 2 20 3 20 2 0 12 -9 22 -20z
m-3129 -45 c-7 -26 -6 -26 42 -19 61 8 73 -11 36 -55 -14 -17 -38 -67 -53
-113 -15 -45 -32 -83 -38 -85 -18 -6 -73 57 -73 83 0 14 7 36 16 49 9 13 13
33 10 43 -12 35 -9 91 4 107 7 8 24 15 37 15 22 0 24 -3 19 -25z m3244 10 c9
-11 11 -33 6 -75 -5 -47 -3 -65 8 -82 9 -12 16 -31 16 -40 0 -25 -64 -93 -78
-84 -7 4 -23 44 -37 90 -16 54 -34 90 -50 104 -14 12 -25 32 -25 43 0 20 4 21
54 15 53 -6 53 -6 48 19 -4 21 -1 25 21 25 13 0 30 -7 37 -15z m-2985 -32 c-4
-10 -10 -26 -12 -36 -6 -19 -34 -20 -40 -2 -4 13 33 55 48 55 7 0 8 -7 4 -17z
m2704 -9 c21 -27 20 -44 -2 -44 -17 1 -49 70 -31 70 7 0 22 -12 33 -26z
m-2781 -64 c24 -27 30 -29 58 -21 46 13 64 -2 37 -31 -12 -13 -29 -42 -38 -65
-9 -23 -32 -53 -50 -67 -19 -14 -35 -36 -37 -48 -5 -34 -46 -35 -80 -3 -32 30
-33 35 -13 90 8 22 19 59 25 81 8 34 51 94 67 94 2 0 16 -14 31 -30z m2897
-16 c12 -17 27 -57 34 -88 7 -30 17 -58 22 -61 18 -12 8 -44 -22 -70 -37 -31
-73 -30 -77 2 -2 13 -17 32 -34 44 -17 12 -41 44 -53 71 -12 27 -30 57 -40 68
-25 28 -11 40 39 34 37 -5 47 -3 62 15 24 28 43 23 69 -15z m-2637 -14 c-1
-31 -12 -37 -38 -20 -13 9 -11 13 10 30 14 11 26 20 27 20 1 0 1 -13 1 -30z
m2332 10 c27 -20 26 -24 -6 -34 -18 -6 -22 -2 -26 24 -5 35 -2 36 32 10z
m-2380 -61 c58 -26 80 -47 80 -75 0 -28 -31 -50 -85 -60 -52 -9 -75 -21 -75
-40 0 -12 8 -13 35 -8 28 5 40 1 63 -17 16 -13 38 -29 48 -35 17 -10 14 -14
-28 -34 l-47 -22 -81 33 c-83 33 -113 59 -102 88 3 9 22 35 43 58 20 24 39 56
42 72 6 31 31 61 50 61 7 0 32 -10 57 -21z m2477 6 c12 -8 24 -29 28 -45 4
-17 24 -53 46 -80 58 -74 55 -84 -48 -132 -82 -37 -90 -39 -123 -28 -19 7 -43
19 -54 26 -17 12 -16 14 15 27 19 8 40 22 48 31 11 13 23 16 54 11 34 -6 38
-5 35 11 -2 11 -17 22 -38 27 -106 26 -110 27 -116 54 -9 35 4 53 62 85 57 32
63 33 91 13z m-2936 -122 c9 -10 19 -33 22 -51 10 -49 56 -141 77 -152 15 -8
21 -6 31 11 17 33 29 5 29 -71 0 -67 -20 -124 -57 -165 -21 -23 -87 -75 -96
-75 -3 0 4 21 16 48 17 36 22 65 21 127 0 69 -5 91 -36 160 -39 86 -58 146
-58 183 0 19 3 21 18 13 9 -5 24 -17 33 -28z m3364 -5 c-4 -24 -25 -88 -47
-143 -36 -87 -41 -111 -42 -180 -1 -56 4 -93 17 -124 10 -24 16 -45 14 -48
-10 -9 -112 95 -128 132 -31 68 -21 235 10 176 10 -17 16 -19 31 -11 22 12 66
101 76 153 5 32 50 87 71 87 2 0 2 -19 -2 -42z m-3291 -33 c3 -9 21 -25 40
-36 l35 -20 -16 -35 c-9 -19 -21 -34 -25 -34 -10 0 -43 69 -53 113 -8 29 8 39
19 12z m3189 -17 c-8 -45 -42 -110 -53 -103 -5 3 -15 19 -23 35 -15 29 -14 30
19 49 19 12 37 27 40 36 11 28 24 15 17 -17z m-2613 -7 c119 -23 164 -38 250
-79 169 -80 366 -138 555 -163 145 -19 443 -6 591 25 149 31 297 82 433 148
79 39 130 56 219 74 148 29 171 19 56 -25 l-88 -34 28 -14 c16 -8 24 -18 20
-23 -20 -19 -187 -105 -280 -145 -359 -154 -763 -194 -1144 -114 -230 49 -441
133 -628 250 -37 23 -41 29 -26 37 13 7 2 15 -55 37 -63 25 -110 55 -85 55 5
0 74 -13 154 -29z m-450 -70 c0 -30 17 -46 33 -33 34 29 31 -130 -4 -200 -33
-66 -40 -56 -33 49 6 81 4 104 -10 130 -21 41 -22 85 -1 77 8 -4 15 -14 15
-23z m45 19 c-3 -5 -11 -10 -16 -10 -6 0 -7 5 -4 10 3 6 11 10 16 10 6 0 7 -4
4 -10z m2855 -6 c0 -2 -7 -4 -15 -4 -8 0 -15 4 -15 10 0 5 7 7 15 4 8 -4 15
-8 15 -10z m34 -65 c-14 -32 -16 -55 -10 -141 7 -108 5 -110 -34 -36 -27 50
-30 219 -4 197 13 -10 17 -10 25 2 5 8 9 22 9 31 0 24 24 28 28 5 2 -11 -4
-37 -14 -58z m-2810 35 c9 -3 16 -17 16 -30 0 -13 5 -24 10 -24 6 0 10 7 10
15 0 18 9 19 31 2 14 -10 15 -29 10 -133 -6 -110 -9 -125 -34 -162 -15 -23
-36 -46 -47 -52 -19 -10 -20 -8 -20 37 0 26 -5 88 -11 137 -11 90 -5 216 11
216 5 0 15 -3 24 -6z m296 -4 c11 -6 21 -26 25 -52 10 -58 25 -86 79 -143 43
-45 47 -47 86 -41 24 4 40 2 40 -4 0 -19 -49 -42 -82 -38 -24 2 -33 -1 -33
-12 0 -10 12 -16 38 -18 34 -3 43 2 83 42 63 64 99 60 55 -7 -25 -39 -51 -55
-110 -68 -43 -9 -56 -8 -93 9 -92 41 -160 140 -173 254 l-7 58 33 15 c41 17
37 17 59 5z m2415 -45 c6 -44 -5 -235 -19 -335 -3 -25 -65 51 -78 95 -13 48
-13 66 -3 170 7 75 17 105 35 105 4 0 10 -9 13 -20 8 -33 27 -24 21 10 -5 23
-3 30 9 30 11 0 17 -15 22 -55z m-266 36 c21 -13 10 -135 -18 -188 -49 -98
-143 -158 -227 -146 -40 5 -57 14 -91 48 -43 42 -55 75 -30 75 8 0 35 -21 60
-46 41 -40 51 -45 83 -42 54 4 57 28 3 28 -25 0 -50 7 -61 17 -28 25 -21 34
22 27 39 -6 42 -5 90 47 48 53 63 77 74 129 3 14 18 32 33 42 33 19 43 21 62
9z m-2239 -170 c11 -22 12 -116 1 -145 -7 -17 -10 -16 -28 15 -33 53 -60 129
-67 189 -7 56 -7 56 26 72 l33 15 12 -63 c7 -35 17 -73 23 -83z m2346 123 c28
-7 29 -12 8 -112 -24 -115 -50 -157 -73 -114 -16 30 -17 83 -2 165 11 61 17
77 28 72 8 -3 26 -8 39 -11z m-246 -26 c0 -28 -42 -78 -82 -100 -30 -15 -60
-22 -101 -22 -53 1 -86 12 -62 20 6 3 60 29 120 58 122 60 125 61 125 44z
m-1231 -214 c9 -8 -11 -75 -32 -104 -40 -60 -70 -74 -165 -81 -60 -4 -100 -13
-129 -28 -24 -12 -43 -17 -43 -11 0 22 83 91 147 123 48 23 77 46 98 75 29 40
31 41 75 35 25 -3 47 -7 49 -9z m646 -27 c13 -20 48 -47 95 -72 109 -58 211
-167 108 -114 -28 14 -68 23 -113 26 -38 2 -80 6 -92 9 -34 6 -84 54 -104 99
-32 70 -25 82 51 83 29 1 38 -4 55 -31z m-555 -13 c0 -36 -33 -115 -70 -170
-53 -78 -184 -200 -335 -313 -231 -172 -259 -207 -260 -322 0 -53 4 -72 20
-89 28 -31 76 -50 130 -50 25 0 45 -4 45 -10 0 -19 -75 -93 -107 -107 -62 -25
-140 -7 -187 46 -25 28 -33 27 -51 -9 -19 -38 -19 -109 1 -159 20 -50 77 -81
148 -81 98 0 181 -46 192 -106 l6 -31 -70 1 c-66 1 -70 0 -112 -37 -86 -79
-194 -106 -276 -72 -86 36 -164 136 -164 209 0 29 2 28 30 -24 17 -30 48 -72
70 -93 33 -31 46 -37 82 -37 l43 1 -49 19 c-59 23 -91 52 -118 105 -25 48 -35
160 -19 206 6 18 9 34 7 36 -9 9 -83 -38 -122 -76 -41 -41 -84 -140 -84 -193
l0 -21 -25 23 c-40 37 -103 141 -116 190 -16 59 -6 106 33 164 53 81 91 99
221 106 14 0 7 30 -8 30 -7 0 -37 5 -65 11 -97 21 -157 120 -131 218 14 53 41
85 94 113 l38 19 -6 -43 c-8 -52 15 -120 48 -141 75 -48 145 -19 367 152 67
52 194 120 367 194 169 74 298 182 373 313 35 62 60 74 60 28z m161 14 c0 -10
2 -10 6 0 3 7 23 12 49 12 l45 0 -28 -50 c-15 -28 -36 -60 -45 -73 l-18 -22
-17 22 c-10 13 -31 45 -46 73 l-28 50 40 0 c26 0 41 -5 42 -12z m252 -62 c47
-74 145 -175 216 -222 21 -13 109 -56 195 -94 172 -75 269 -129 349 -193 134
-108 213 -152 268 -151 78 2 128 72 114 160 l-6 45 38 -19 c47 -24 68 -47 88
-95 21 -50 19 -83 -9 -142 -28 -61 -59 -83 -137 -98 -37 -6 -59 -16 -59 -24 0
-7 3 -13 8 -13 122 -7 158 -22 206 -85 84 -109 73 -195 -41 -340 l-47 -60 -8
40 c-12 60 -38 126 -64 160 -23 31 -130 102 -140 93 -2 -3 0 -17 6 -32 28 -74
-3 -216 -58 -270 -16 -14 -51 -35 -78 -46 l-49 -19 43 -1 c36 0 49 6 82 38 22
20 53 62 70 92 28 52 30 53 30 24 0 -45 -46 -129 -90 -164 -109 -87 -227 -79
-349 24 -51 43 -76 51 -136 42 -44 -7 -45 -7 -45 20 0 58 95 114 193 114 118
0 174 61 164 178 -3 39 -11 70 -20 80 -14 14 -19 12 -51 -16 -45 -39 -102 -57
-153 -47 -28 5 -52 21 -93 63 l-55 57 65 6 c104 9 138 37 147 122 5 45 1 64
-19 108 -32 67 -47 84 -164 170 -51 38 -102 75 -111 83 -10 8 -53 42 -95 76
-145 115 -249 250 -273 355 -12 50 -12 55 4 55 11 0 36 -28 64 -74z m-407
-222 c-60 -240 -82 -310 -222 -697 -35 -99 -47 -202 -35 -303 17 -140 70 -215
160 -229 20 -3 49 -9 64 -13 l28 -7 -32 -43 c-18 -25 -53 -54 -83 -70 -94 -49
-250 -33 -351 36 -41 29 -89 98 -101 145 -8 34 11 36 73 7 l42 -19 11 37 c15
55 12 81 -11 119 -24 38 -57 58 -113 68 l-38 8 6 51 c4 28 13 56 21 61 8 6 33
21 56 35 52 32 89 93 89 149 0 35 -3 42 -16 37 -9 -3 -27 -9 -42 -13 -22 -5
-24 -3 -18 13 20 55 113 190 211 307 128 152 223 283 286 390 24 42 45 74 47
72 2 -1 -13 -65 -32 -141z m404 -30 c58 -86 135 -187 207 -269 100 -117 157
-193 197 -267 20 -35 36 -68 36 -72 0 -9 -32 -4 -62 9 -16 6 -18 1 -18 -38 0
-68 56 -142 128 -169 17 -7 32 -17 32 -24 0 -6 3 -32 6 -58 6 -44 5 -46 -17
-46 -36 -1 -104 -35 -123 -61 -23 -34 -29 -80 -17 -127 l11 -41 43 19 c81 37
94 23 52 -59 -50 -99 -154 -154 -295 -155 -77 -1 -90 2 -139 29 -47 26 -119
101 -107 112 2 2 29 8 61 13 118 19 166 80 185 235 13 105 1 205 -36 309 -76
210 -138 390 -161 466 -28 95 -93 349 -93 364 0 6 17 -19 38 -55 22 -36 54
-88 72 -115z m-258 -426 c3 -801 5 -888 16 -888 5 0 12 321 16 712 4 392 9
715 12 717 2 2 6 2 8 0 6 -6 153 -795 171 -920 19 -130 25 -350 9 -356 -7 -2
-13 45 -18 146 -3 83 -9 157 -12 166 -15 39 -19 2 -16 -145 5 -173 5 -172 -50
-144 l-31 16 7 -29 c4 -15 17 -49 30 -74 23 -46 23 -47 6 -86 -15 -35 -111
-133 -130 -133 -18 0 -112 95 -131 132 -20 39 -20 39 -1 71 23 38 46 106 39
114 -3 3 -16 -2 -29 -11 -49 -35 -51 -29 -46 144 4 147 0 186 -16 144 -3 -9
-9 -83 -13 -165 -3 -82 -10 -149 -14 -149 -18 0 -21 60 -10 199 13 166 27 256
105 671 78 411 78 410 87 410 5 0 10 -244 11 -542z m-108 375 c-3 -27 -24
-135 -45 -241 -50 -249 -66 -353 -79 -542 -7 -85 -15 -193 -18 -240 l-7 -84
-41 39 c-55 52 -68 102 -59 214 10 136 22 180 125 491 54 162 104 321 111 353
15 69 23 75 13 10z m379 -374 c90 -262 113 -352 123 -483 8 -106 -6 -158 -57
-210 -22 -21 -42 -37 -44 -34 -3 2 -9 92 -15 199 -13 229 -35 393 -89 659 -49
244 -61 334 -26 205 13 -49 62 -201 108 -336z m-646 304 c-132 -153 -252 -317
-298 -408 -42 -83 -42 -83 -66 -68 -41 27 -42 91 -2 181 32 73 74 116 196 200
65 45 147 106 183 136 36 30 66 55 68 55 2 1 -35 -43 -81 -96z m958 -98 c127
-84 157 -115 193 -195 36 -76 41 -141 13 -169 -32 -32 -44 -26 -75 37 -54 111
-170 272 -326 452 l-65 75 73 -62 c40 -33 125 -95 187 -138z m387 -604 c1 -53
-29 -87 -84 -96 -48 -8 -58 2 -58 58 0 36 1 37 36 37 26 0 43 8 62 28 33 34
43 28 44 -27z m-1860 24 c16 -14 42 -25 58 -25 37 0 43 -11 35 -61 l-7 -41
-41 6 c-62 10 -87 39 -87 98 0 26 3 48 6 48 3 0 19 -11 36 -25z m802 -601 c21
-24 53 -53 72 -64 30 -19 35 -20 61 -6 28 14 100 88 134 137 26 37 31 18 8
-29 -45 -90 -137 -170 -183 -158 -53 13 -167 145 -166 192 1 17 3 17 18 -5 9
-12 34 -43 56 -67z"/>
<path d="M5038 9101 c-8 -14 -16 -17 -24 -10 -17 14 -29 -8 -14 -26 6 -7 10
-26 8 -41 -4 -32 21 -46 29 -16 3 14 11 18 24 15 20 -6 28 20 9 32 -6 3 -7 17
-4 30 7 30 -12 41 -28 16z"/>
<path d="M7859 8204 c-19 -28 -34 -64 -37 -89 -5 -50 14 -115 34 -115 10 0 11
6 4 26 -17 44 -11 87 20 144 16 30 29 61 30 68 0 24 -20 11 -51 -34z"/>
<path d="M2890 8238 c1 -7 14 -38 30 -68 31 -57 37 -100 20 -144 -7 -20 -6
-26 4 -26 8 0 19 14 25 31 19 56 13 101 -21 159 -32 53 -58 75 -58 48z"/>
<path d="M1899 8419 c-89 -125 -50 -423 85 -659 76 -133 104 -161 50 -51 -109
224 -149 370 -142 520 5 92 30 177 49 166 4 -3 28 -44 54 -93 46 -84 166 -265
184 -276 5 -3 -20 42 -55 101 -35 58 -87 155 -116 214 -58 119 -72 129 -109
78z"/>
<path d="M1616 7728 c-20 -78 1 -202 54 -314 39 -81 135 -198 203 -246 26 -19
22 -10 -24 47 -115 143 -168 234 -193 332 -19 71 -20 109 -6 118 6 4 41 -22
78 -57 65 -61 201 -170 272 -217 19 -13 6 3 -30 34 -36 32 -124 118 -196 191
-73 74 -136 134 -142 134 -5 0 -12 -10 -16 -22z"/>
<path d="M8803 8362 c-37 -77 -135 -253 -179 -322 -13 -19 -10 -18 10 5 43 48
145 203 182 276 18 37 38 70 43 73 5 3 17 -11 27 -32 29 -59 31 -216 5 -319
-29 -111 -64 -208 -117 -317 -24 -49 -42 -92 -39 -94 9 -9 126 207 154 283 76
209 80 408 10 506 -33 47 -50 37 -96 -59z"/>
<path d="M9025 7616 c-71 -73 -161 -161 -200 -195 l-70 -62 80 57 c93 66 167
127 247 202 67 63 83 61 74 -8 -15 -115 -67 -219 -183 -367 -84 -108 -59 -100
50 16 104 110 167 260 167 394 0 63 -9 97 -24 97 -6 -1 -69 -61 -141 -134z"/>
<path d="M6886 8203 c-6 -14 -5 -15 5 -6 7 7 10 15 7 18 -3 3 -9 -2 -12 -12z"/>
<path d="M3923 8044 c-3 -8 -1 -20 5 -26 15 -15 43 8 35 28 -7 19 -32 18 -40
-2z"/>
<path d="M6774 8045 c-4 -10 -1 -21 7 -26 20 -12 34 -5 34 17 0 24 -33 31 -41
9z"/>
<path d="M6834 8049 c-10 -17 23 -46 37 -32 7 7 9 19 6 27 -7 18 -33 21 -43 5z"/>
<path d="M3563 7585 c-11 -8 -26 -28 -31 -45 -12 -34 -5 -37 47 -19 26 9 32
16 27 33 -3 11 -6 27 -6 34 0 16 -11 15 -37 -3z"/>
<path d="M7196 7578 c-10 -39 -7 -46 25 -57 52 -18 59 -15 47 19 -9 27 -42 60
-59 60 -4 0 -9 -10 -13 -22z"/>
<path d="M2705 7321 c-3 -16 -6 -65 -7 -109 0 -132 53 -256 161 -372 l42 -45
-35 51 c-90 129 -155 324 -130 389 6 14 16 8 57 -32 l50 -48 -37 57 c-19 32
-47 76 -61 98 -14 22 -27 40 -29 40 -3 0 -7 -13 -11 -29z"/>
<path d="M8034 7274 c-71 -112 -72 -114 -21 -65 l46 44 7 -27 c18 -74 -52
-272 -140 -397 -6 -8 8 5 31 30 54 59 102 139 126 209 20 59 25 201 9 256 -8
29 -8 29 -58 -50z"/>
<path d="M1507 7127 c-17 -45 52 -183 137 -275 66 -71 116 -107 221 -164 58
-31 64 -33 35 -10 -192 151 -268 230 -325 337 -27 51 -31 70 -16 79 12 8 227
-64 343 -114 50 -22 94 -38 96 -36 5 6 -108 74 -183 110 -144 69 -296 105
-308 73z"/>
<path d="M9130 7111 c-90 -29 -202 -82 -283 -133 -53 -34 -57 -49 -7 -23 48
25 204 85 302 115 111 35 122 29 85 -45 -54 -111 -166 -229 -326 -343 -24 -18
-41 -32 -37 -32 10 0 116 60 176 101 137 91 260 273 252 372 -3 26 -61 22
-162 -12z"/>
<path d="M3156 6904 c-14 -37 -17 -116 -6 -170 14 -66 58 -140 119 -199 50
-48 53 -39 6 22 -20 26 -49 74 -66 108 -25 52 -30 71 -27 123 l3 62 47 -32
c25 -18 61 -44 80 -57 18 -14 -3 14 -47 61 -88 94 -101 103 -109 82z"/>
<path d="M3360 6615 c0 -13 71 -102 142 -178 47 -51 67 -67 81 -62 34 14 17
43 -65 111 -46 37 -100 83 -120 103 -21 19 -38 31 -38 26z"/>
<path d="M3150 6323 c-19 -10 -36 -26 -38 -36 -12 -63 42 -144 113 -173 l40
-16 -52 49 c-48 44 -53 53 -53 91 0 37 4 44 26 53 18 6 45 6 82 -1 30 -5 57
-8 60 -6 7 7 -72 44 -108 51 -24 4 -46 0 -70 -12z"/>
<path d="M3305 6193 c55 -53 149 -123 166 -123 40 0 15 34 -56 77 -67 40 -132
67 -110 46z"/>
<path d="M3155 5979 c-11 -6 -34 -29 -52 -52 -31 -40 -31 -42 -17 -76 20 -47
50 -78 82 -86 15 -3 36 -8 47 -11 11 -3 -4 9 -33 26 -55 32 -77 67 -68 105 8
30 58 75 102 90 l39 14 -40 0 c-22 0 -49 -5 -60 -10z"/>
<path d="M3240 5880 c0 -14 13 -18 93 -29 78 -11 97 -7 97 20 0 17 -8 19 -95
19 -59 0 -95 -4 -95 -10z"/>
<path d="M3225 5624 c-15 -16 -26 -43 -30 -72 -3 -26 -7 -57 -9 -68 -2 -17 8
-27 51 -48 60 -29 84 -31 128 -11 30 13 30 13 -26 14 -48 1 -62 5 -88 30 -53
49 -39 118 33 162 l31 19 -33 0 c-23 0 -40 -8 -57 -26z"/>
<path d="M3408 5614 c-55 -34 -72 -54 -45 -54 26 1 122 56 125 73 5 25 -16 21
-80 -19z"/>
<path d="M7545 6828 c-95 -97 -95 -98 2 -25 34 26 64 47 67 47 3 0 6 -27 6
-61 0 -71 -33 -150 -100 -236 -55 -73 -34 -66 38 12 74 81 108 170 99 264 -9
102 -12 102 -112 -1z"/>
<path d="M7313 6513 c-111 -93 -132 -124 -97 -137 18 -7 69 41 156 147 98 117
88 115 -59 -10z"/>
<path d="M7536 6320 c-57 -22 -86 -46 -46 -37 126 28 155 16 151 -61 -1 -14
-22 -44 -53 -74 l-53 -50 40 16 c71 30 115 90 115 157 0 55 -77 79 -154 49z"/>
<path d="M7440 6178 c-60 -27 -130 -78 -130 -94 0 -31 34 -17 106 43 44 36 81
67 83 69 11 10 -18 1 -59 -18z"/>
<path d="M7585 5974 c77 -28 116 -89 92 -142 -6 -13 -34 -37 -62 -53 -40 -24
-44 -28 -20 -23 50 11 85 33 105 67 30 48 25 72 -23 122 -39 40 -48 45 -88 44
l-44 0 40 -15z"/>
<path d="M7366 5875 c-10 -26 26 -35 100 -24 81 11 94 15 94 29 0 6 -36 10
-94 10 -74 0 -95 -3 -100 -15z"/>
<path d="M7312 5633 c3 -17 98 -71 126 -72 27 -2 9 19 -47 53 -65 40 -84 44
-79 19z"/>
<path d="M7516 5631 c72 -44 86 -113 33 -162 -27 -25 -39 -29 -88 -29 -54 -1
-55 -1 -31 -15 36 -21 67 -18 130 11 l56 26 -7 62 c-3 34 -11 72 -18 84 -13
24 -48 42 -84 42 -19 0 -18 -2 9 -19z"/>
<path d="M2577 6803 c-29 -28 29 -159 100 -224 83 -78 101 -78 35 0 -63 72
-102 137 -102 167 0 24 75 13 168 -24 46 -19 68 -25 61 -15 -18 21 -114 68
-178 87 -60 18 -74 19 -84 9z"/>
<path d="M8129 6791 c-60 -19 -153 -67 -170 -87 -5 -7 23 1 63 17 92 38 155
48 164 26 8 -23 -30 -89 -98 -168 -66 -78 -48 -78 35 0 79 73 134 209 91 225
-20 8 -20 8 -85 -13z"/>
<path d="M1384 6606 c-13 -54 85 -157 216 -225 68 -35 196 -91 209 -91 3 0
-37 25 -89 55 -174 103 -301 208 -285 236 12 19 168 4 324 -31 74 -16 136 -28
138 -26 6 6 -156 66 -222 82 -33 8 -110 17 -172 21 l-112 6 -7 -27z"/>
<path d="M9215 6623 c-92 -13 -325 -86 -312 -99 2 -2 64 10 138 26 165 37 307
50 320 29 17 -29 -103 -129 -282 -234 -52 -30 -91 -55 -88 -55 12 0 136 53
209 90 126 64 229 171 216 225 -6 24 -9 25 -89 24 -45 -1 -95 -4 -112 -6z"/>
<path d="M1520 6140 c-119 -25 -127 -49 -44 -126 93 -87 215 -140 364 -158 36
-4 28 0 -40 23 -115 37 -205 86 -264 144 -42 42 -47 51 -34 63 20 21 146 34
278 29 l115 -5 -45 17 c-53 19 -260 27 -330 13z"/>
<path d="M8980 6136 c-25 -7 -52 -15 -60 -18 -8 -4 57 -6 145 -5 160 0 245
-12 245 -35 0 -7 -22 -33 -50 -60 -53 -51 -137 -98 -240 -134 -77 -27 -48 -32
49 -8 87 21 183 72 254 135 88 78 78 105 -52 129 -72 13 -235 11 -291 -4z"/>
<path d="M8928 5853 c7 -3 16 -2 19 1 4 3 -2 6 -13 5 -11 0 -14 -3 -6 -6z"/>
<path d="M4893 6093 c280 -2 734 -2 1010 0 276 1 48 2 -508 2 -555 0 -781 -1
-502 -2z"/>
<path d="M4405 5875 c0 -85 2 -155 3 -155 2 0 51 30 109 66 141 89 325 176
448 213 l100 30 -330 0 -330 1 0 -155z"/>
<path d="M5795 6005 c180 -53 318 -123 563 -283 l22 -14 0 161 0 161 -332 -1
-333 0 80 -24z"/>
<path d="M2555 6078 c-58 -15 -105 -53 -105 -85 0 -35 64 -95 117 -111 70 -21
80 -12 21 18 -140 73 -123 152 38 167 47 4 62 9 49 14 -27 10 -72 9 -120 -3z"/>
<path d="M8125 6081 c-13 -5 2 -10 49 -14 161 -15 178 -94 38 -167 -45 -23
-52 -29 -32 -29 37 -1 123 42 148 74 44 56 17 101 -77 129 -59 17 -94 19 -126
7z"/>
<path d="M5367 5103 c-4 -54 -7 -117 -7 -140 l0 -43 38 0 38 0 -4 128 c-2 70
-5 133 -7 140 -3 6 -15 12 -28 12 -23 0 -24 -3 -30 -97z"/>
<path d="M5349 4673 c-1 -21 -4 -98 -8 -171 l-6 -132 64 0 64 0 -6 113 c-4 61
-7 138 -7 170 l0 57 -50 0 -50 0 -1 -37z"/>
<path d="M2672 5749 c-85 -16 -151 -77 -126 -116 24 -38 63 -57 126 -60 l63
-3 -45 14 c-137 40 -144 89 -20 141 45 19 73 36 55 34 -6 -1 -30 -5 -53 -10z"/>
<path d="M8077 5750 c4 -3 28 -15 53 -25 124 -52 117 -101 -20 -141 l-45 -14
62 3 c48 3 68 9 97 31 20 15 36 35 36 44 0 28 -30 63 -69 80 -38 16 -128 34
-114 22z"/>
<path d="M1715 5704 c-83 -17 -199 -72 -203 -96 -2 -9 13 -35 33 -57 68 -75
179 -109 312 -95 l78 8 -101 7 c-107 7 -193 36 -241 81 -50 47 -18 70 187 134
102 32 103 33 55 33 -27 0 -81 -7 -120 -15z"/>
<path d="M8925 5713 c63 -14 169 -49 233 -75 83 -34 91 -53 39 -92 -63 -48
-125 -68 -232 -75 l-100 -7 78 -8 c133 -14 244 20 312 95 20 22 35 48 33 57
-4 24 -122 79 -207 97 -62 13 -211 21 -156 8z"/>
<path d="M1832 5294 c-104 -35 -165 -68 -217 -118 -43 -40 -45 -45 -34 -70 15
-32 75 -61 155 -76 47 -8 77 -7 135 4 85 16 169 43 184 58 7 8 4 9 -9 4 -148
-52 -276 -57 -363 -13 -90 44 -62 86 117 170 111 52 116 54 109 61 -2 3 -37
-6 -77 -20z"/>
<path d="M8955 5260 c124 -60 180 -104 169 -133 -9 -24 -86 -58 -151 -66 -57
-8 -169 6 -226 28 -41 16 -57 13 -25 -4 53 -29 199 -58 263 -52 106 10 195 54
195 98 0 41 -149 137 -269 173 -91 27 -81 17 44 -44z"/>
<path d="M2975 5201 c-30 -44 -41 -109 -31 -165 l7 -36 55 0 c61 0 112 19 131
49 11 18 9 18 -48 -2 -113 -38 -152 8 -105 123 14 35 24 66 21 68 -2 2 -16
-14 -30 -37z"/>
<path d="M7790 5235 c0 -3 10 -25 22 -48 28 -55 30 -124 4 -143 -27 -19 -56
-18 -118 6 l-52 20 32 -32 c28 -29 39 -33 100 -36 79 -5 82 -2 82 94 0 39 -7
61 -30 97 -27 43 -40 56 -40 42z"/>
<path d="M3236 5011 c-34 -36 -45 -104 -26 -162 13 -38 15 -39 58 -39 51 0
108 24 123 52 10 18 8 18 -28 -2 -45 -24 -81 -26 -111 -4 -29 20 -30 89 -2
144 11 22 19 40 17 40 -2 0 -16 -13 -31 -29z"/>
<path d="M7549 5002 c58 -115 3 -192 -105 -147 -26 11 -35 11 -32 2 7 -21 71
-47 116 -47 39 0 44 3 57 33 29 69 20 130 -27 173 l-30 29 21 -43z"/>
<path d="M2082 4975 c-78 -34 -182 -149 -182 -202 0 -45 91 -64 189 -39 63 16
179 83 216 126 12 13 -13 1 -59 -29 -43 -28 -97 -56 -120 -63 -60 -17 -155
-14 -174 6 -15 15 -15 19 3 52 23 43 74 88 146 131 56 34 44 45 -19 18z"/>
<path d="M8717 4924 c12 -17 29 -37 38 -44 22 -18 55 -84 55 -110 0 -15 -6
-20 -27 -20 -28 0 -160 30 -198 45 -38 15 -1 -13 55 -41 43 -22 73 -29 134
-32 l79 -4 -5 46 c-7 59 -42 112 -104 156 l-49 35 22 -31z"/>
<path d="M2256 4619 c-58 -52 -69 -71 -68 -128 1 -53 22 -76 79 -87 50 -9 101
9 153 56 l45 40 -55 -25 c-101 -46 -163 -45 -181 2 -13 34 2 79 47 137 19 25
33 46 31 46 -2 0 -25 -18 -51 -41z"/>
<path d="M8519 4622 c59 -76 72 -150 28 -173 -28 -15 -85 -6 -154 25 l-58 26
45 -40 c71 -63 144 -76 206 -35 20 13 24 24 24 70 0 47 -4 59 -31 90 -17 19
-45 45 -63 57 l-31 23 34 -43z"/>
<path d="M2641 4377 c-27 -55 -27 -95 1 -159 l22 -50 61 4 c73 6 117 27 133
64 17 37 10 39 -26 9 -109 -91 -219 -4 -171 134 17 49 4 48 -20 -2z"/>
<path d="M8135 4400 c17 -65 17 -108 0 -143 -30 -63 -100 -68 -167 -12 -37 32
-46 26 -22 -13 22 -39 54 -53 130 -59 l60 -5 23 53 c28 63 25 122 -9 171 -19
29 -21 30 -15 8z"/>
<path d="M3053 4247 c-30 -65 -8 -144 52 -189 21 -16 27 -16 74 -2 55 16 115
62 124 94 4 16 -1 15 -32 -11 -49 -39 -96 -52 -138 -38 -46 15 -56 32 -62 107
-6 63 -7 65 -18 39z"/>
<path d="M7730 4222 c0 -68 -21 -107 -62 -121 -43 -14 -90 -1 -139 39 l-38 30
10 -27 c12 -34 62 -70 126 -89 l48 -15 43 45 c38 40 42 50 42 93 -1 26 -7 59
-15 73 -14 24 -14 23 -15 -28z"/>
<path d="M4783 2446 c-206 -105 -294 -166 -388 -268 -82 -89 -120 -155 -145
-254 -24 -92 -25 -157 -5 -242 31 -131 86 -192 178 -199 l52 -3 -37 14 c-62
24 -106 65 -135 124 -23 47 -28 73 -31 154 -5 119 17 202 79 298 78 121 174
201 379 314 143 80 263 158 238 156 -2 0 -85 -43 -185 -94z"/>
<path d="M3915 2170 c-10 -44 2 -84 33 -112 29 -27 89 -51 103 -42 18 11 8 21
-30 33 -54 16 -81 52 -81 107 0 50 -15 59 -25 14z"/>
<path d="M4440 1935 c0 -49 27 -93 69 -114 49 -25 113 -28 132 -5 12 15 10 16
-18 10 -65 -15 -163 56 -163 117 0 9 -4 17 -10 17 -5 0 -10 -11 -10 -25z"/>
<path d="M4050 1890 c-68 -23 -105 -63 -118 -126 -11 -53 -3 -128 13 -125 6 1
10 18 11 39 2 93 5 102 35 137 22 24 48 40 85 51 33 9 54 21 54 30 0 18 -13
17 -80 -6z"/>
<path d="M5830 2536 c0 -10 117 -83 248 -157 333 -185 460 -357 450 -608 -3
-81 -8 -106 -32 -154 -28 -58 -78 -102 -141 -125 -30 -10 -30 -10 13 -11 24
-1 56 6 72 14 67 35 118 142 127 269 14 197 -86 376 -297 535 -68 51 -440 251
-440 237z"/>
<path d="M6860 2157 c0 -55 -21 -84 -78 -108 -31 -14 -42 -23 -35 -30 7 -7 22
-5 49 6 74 31 104 79 89 145 -10 44 -25 36 -25 -13z"/>
<path d="M6340 1943 c0 -61 -98 -132 -163 -117 -28 6 -30 5 -18 -10 33 -39
150 -5 184 54 19 31 23 90 7 90 -5 0 -10 -8 -10 -17z"/>
<path d="M6670 1898 c0 -9 22 -21 54 -31 36 -12 65 -29 85 -53 30 -34 33 -44
35 -129 1 -50 18 -57 28 -13 11 47 -1 113 -26 151 -33 50 -176 111 -176 75z"/>
<path d="M5039 2263 c-188 -274 -241 -398 -241 -568 1 -109 34 -252 73 -306
27 -39 87 -75 101 -61 8 8 2 19 -21 38 -78 65 -114 168 -115 319 0 154 36 254
172 482 73 122 135 233 129 233 -2 0 -46 -62 -98 -137z"/>
<path d="M5696 2335 c21 -38 54 -97 75 -131 131 -216 168 -303 189 -440 23
-148 -14 -297 -92 -378 -52 -54 -52 -79 1 -51 98 50 164 318 122 495 -21 91
-113 266 -216 415 -117 168 -130 182 -79 90z"/>
</g>
</svg>
